<svg xmlns="http://www.w3.org/2000/svg" width="1600" height="1050" viewBox="0 0 1600 1050">
<defs><linearGradient id="citySky" x1="0" y1="0" x2="0" y2="1"><stop offset="0" stop-color="#aec8cf"/><stop offset="0.66" stop-color="#e8e1d4"/><stop offset="1" stop-color="#d2d0c6"/></linearGradient></defs>
<rect width="100%" height="100%" fill="url(#citySky)"/>
<ellipse cx="820" cy="820" rx="735" ry="185" fill="#627069" opacity="0.24"/>
<text x="60" y="58" font-family="system-ui,sans-serif" font-size="31" font-weight="700" fill="#263238">Aster metropolitan kit · close aerial diagnostic</text>
<text x="60" y="88" font-family="system-ui,sans-serif" font-size="15" fill="#4f5f65">Downtown skyline, civic massing, old quarter, suburbs, Forge industry and Port Aster</text>
<polygon points="962.3,515.4 943.6,522.3 943.6,513.9 962.3,507.0" fill="#90988f" opacity="0.94"/>
<polygon points="943.6,522.3 938.8,520.5 938.8,512.2 943.6,513.9" fill="#80887f" opacity="0.94"/>
<polygon points="957.5,505.2 962.3,507.0 943.6,513.9 938.8,512.2" fill="#b8c0b7" opacity="0.97"/>
<polygon points="962.8,506.9 943.2,514.1 943.2,511.9 962.8,504.6" fill="#4d5049" opacity="0.94"/>
<polygon points="943.2,514.1 938.3,512.3 938.3,510.0 943.2,511.9" fill="#3d4039" opacity="0.94"/>
<polygon points="957.9,502.8 962.8,504.6 943.2,511.9 938.3,510.0" fill="#757871" opacity="0.97"/>
<polygon points="960.9,518.0 942.3,524.9 942.3,516.5 960.9,509.6" fill="#90988f" opacity="0.94"/>
<polygon points="942.3,524.9 937.5,523.1 937.5,514.8 942.3,516.5" fill="#80887f" opacity="0.94"/>
<polygon points="956.2,507.8 960.9,509.6 942.3,516.5 937.5,514.8" fill="#b8c0b7" opacity="0.97"/>
<polygon points="961.5,509.5 941.9,516.7 941.9,514.5 961.5,507.2" fill="#4d5049" opacity="0.94"/>
<polygon points="941.9,516.7 936.9,514.9 936.9,512.6 941.9,514.5" fill="#3d4039" opacity="0.94"/>
<polygon points="956.6,505.4 961.5,507.2 941.9,514.5 936.9,512.6" fill="#757871" opacity="0.97"/>
<polygon points="968.8,523.0 949.3,530.2 949.3,529.3 968.8,522.1" fill="#424846" opacity="0.94"/>
<polygon points="949.3,530.2 928.4,522.4 928.4,521.6 949.3,529.3" fill="#323836" opacity="0.94"/>
<polygon points="947.8,514.4 968.8,522.1 949.3,529.3 928.4,521.6" fill="#6a706e" opacity="0.97"/>
<polygon points="959.6,520.5 940.9,527.5 940.9,519.1 959.6,512.2" fill="#90988f" opacity="0.94"/>
<polygon points="940.9,527.5 936.2,525.7 936.2,517.3 940.9,519.1" fill="#80887f" opacity="0.94"/>
<polygon points="954.9,510.4 959.6,512.2 940.9,519.1 936.2,517.3" fill="#b8c0b7" opacity="0.97"/>
<polygon points="960.2,512.0 940.6,519.3 940.6,517.1 960.2,509.8" fill="#4d5049" opacity="0.94"/>
<polygon points="940.6,519.3 935.6,517.5 935.6,515.2 940.6,517.1" fill="#3d4039" opacity="0.94"/>
<polygon points="955.2,508.0 960.2,509.8 940.6,517.1 935.6,515.2" fill="#757871" opacity="0.97"/>
<polygon points="958.3,523.1 939.6,530.1 939.6,521.7 958.3,514.8" fill="#818d86" opacity="0.94"/>
<polygon points="939.6,530.1 934.9,528.3 934.9,519.9 939.6,521.7" fill="#717d76" opacity="0.94"/>
<polygon points="953.6,513.0 958.3,514.8 939.6,521.7 934.9,519.9" fill="#a9b5ae" opacity="0.97"/>
<polygon points="958.9,514.6 939.3,521.9 939.3,519.7 958.9,512.4" fill="#4d5049" opacity="0.94"/>
<polygon points="939.3,521.9 934.3,520.1 934.3,517.8 939.3,519.7" fill="#3d4039" opacity="0.94"/>
<polygon points="953.9,510.6 958.9,512.4 939.3,519.7 934.3,517.8" fill="#757871" opacity="0.97"/>
<polygon points="894.4,531.8 881.7,536.5 881.7,535.7 894.4,531.0" fill="#424846" opacity="0.94"/>
<polygon points="881.7,536.5 866.7,530.9 866.7,530.1 881.7,535.7" fill="#323836" opacity="0.94"/>
<polygon points="879.4,525.4 894.4,531.0 881.7,535.7 866.7,530.1" fill="#6a706e" opacity="0.97"/>
<polygon points="893.5,530.8 881.3,535.3 881.3,528.2 893.5,523.7" fill="#90988f" opacity="0.94"/>
<polygon points="881.3,535.3 867.7,530.3 867.7,523.2 881.3,528.2" fill="#80887f" opacity="0.94"/>
<polygon points="879.9,518.7 893.5,523.7 881.3,528.2 867.7,523.2" fill="#b8c0b7" opacity="0.97"/>
<polygon points="894.1,523.7 881.3,528.5 881.3,522.5 894.1,517.7" fill="#4d5049" opacity="0.94"/>
<polygon points="881.3,528.5 867.1,523.2 867.1,517.2 881.3,522.5" fill="#3d4039" opacity="0.94"/>
<polygon points="879.9,512.4 894.1,517.7 881.3,522.5 867.1,517.2" fill="#757871" opacity="0.97"/>
<polygon points="981.2,542.6 970.6,546.5 970.6,545.7 981.2,541.7" fill="#424846" opacity="0.94"/>
<polygon points="970.6,546.5 957.0,541.5 957.0,540.6 970.6,545.7" fill="#323836" opacity="0.94"/>
<polygon points="967.6,536.7 981.2,541.7 970.6,545.7 957.0,540.6" fill="#6a706e" opacity="0.97"/>
<polygon points="980.3,541.6 970.1,545.3 970.1,537.0 980.3,533.2" fill="#a79d8b" opacity="0.94"/>
<polygon points="970.1,545.3 957.9,540.8 957.9,532.5 970.1,537.0" fill="#978d7b" opacity="0.94"/>
<polygon points="968.0,528.7 980.3,533.2 970.1,537.0 957.9,532.5" fill="#cfc5b3" opacity="0.97"/>
<polygon points="980.9,533.3 970.2,537.2 970.2,531.4 980.9,527.5" fill="#4d5049" opacity="0.94"/>
<polygon points="970.2,537.2 957.3,532.5 957.3,526.6 970.2,531.4" fill="#3d4039" opacity="0.94"/>
<polygon points="968.0,522.7 980.9,527.5 970.2,531.4 957.3,526.6" fill="#757871" opacity="0.97"/>
<polygon points="1016.0,543.9 1000.5,549.6 1000.5,548.8 1016.0,543.0" fill="#424846" opacity="0.94"/>
<polygon points="1000.5,549.6 986.7,544.5 986.7,543.7 1000.5,548.8" fill="#323836" opacity="0.94"/>
<polygon points="1002.2,537.9 1016.0,543.0 1000.5,548.8 986.7,543.7" fill="#6a706e" opacity="0.97"/>
<polygon points="1015.1,542.9 1000.1,548.4 1000.1,542.1 1015.1,536.5" fill="#b4a993" opacity="0.94"/>
<polygon points="1000.1,548.4 987.7,543.8 987.7,537.5 1000.1,542.1" fill="#a49983" opacity="0.94"/>
<polygon points="1002.6,531.9 1015.1,536.5 1000.1,542.1 987.7,537.5" fill="#dcd1bb" opacity="0.97"/>
<polygon points="1015.7,536.5 1000.1,542.3 1000.1,536.4 1015.7,530.6" fill="#4d5049" opacity="0.94"/>
<polygon points="1000.1,542.3 987.0,537.5 987.0,531.6 1000.1,536.4" fill="#3d4039" opacity="0.94"/>
<polygon points="1002.6,525.8 1015.7,530.6 1000.1,536.4 987.0,531.6" fill="#757871" opacity="0.97"/>
<polygon points="940.7,546.4 925.3,552.1 925.3,551.2 940.7,545.5" fill="#424846" opacity="0.94"/>
<polygon points="925.3,552.1 909.5,546.2 909.5,545.4 925.3,551.2" fill="#323836" opacity="0.94"/>
<polygon points="924.9,539.7 940.7,545.5 925.3,551.2 909.5,545.4" fill="#6a706e" opacity="0.97"/>
<polygon points="939.6,545.4 924.8,550.8 924.8,542.4 939.6,536.9" fill="#a79d8b" opacity="0.94"/>
<polygon points="924.8,550.8 910.5,545.5 910.5,537.1 924.8,542.4" fill="#978d7b" opacity="0.94"/>
<polygon points="925.3,531.6 939.6,536.9 924.8,542.4 910.5,537.1" fill="#cfc5b3" opacity="0.97"/>
<polygon points="940.4,536.9 924.8,542.7 924.8,536.6 940.4,530.9" fill="#4d5049" opacity="0.94"/>
<polygon points="924.8,542.7 909.8,537.1 909.8,531.1 924.8,536.6" fill="#3d4039" opacity="0.94"/>
<polygon points="925.3,525.3 940.4,530.9 924.8,536.6 909.8,531.1" fill="#757871" opacity="0.97"/>
<polygon points="873.0,547.4 857.7,553.1 857.7,542.4 873.0,536.7" fill="#a79d8b" opacity="0.94"/>
<polygon points="857.7,553.1 851.7,550.9 851.7,540.2 857.7,542.4" fill="#978d7b" opacity="0.94"/>
<polygon points="867.1,534.5 873.0,536.7 857.7,542.4 851.7,540.2" fill="#cfc5b3" opacity="0.97"/>
<polygon points="873.5,536.6 857.4,542.6 857.4,539.8 873.5,533.8" fill="#4d5049" opacity="0.94"/>
<polygon points="857.4,542.6 851.2,540.3 851.2,537.5 857.4,539.8" fill="#3d4039" opacity="0.94"/>
<polygon points="867.3,531.5 873.5,533.8 857.4,539.8 851.2,537.5" fill="#757871" opacity="0.97"/>
<polygon points="871.3,550.7 856.0,556.4 856.0,545.6 871.3,540.0" fill="#90988f" opacity="0.94"/>
<polygon points="856.0,556.4 850.0,554.2 850.0,543.4 856.0,545.6" fill="#80887f" opacity="0.94"/>
<polygon points="865.4,537.8 871.3,540.0 856.0,545.6 850.0,543.4" fill="#b8c0b7" opacity="0.97"/>
<polygon points="871.9,539.9 855.7,545.8 855.7,543.0 871.9,537.1" fill="#4d5049" opacity="0.94"/>
<polygon points="855.7,545.8 849.5,543.5 849.5,540.7 855.7,543.0" fill="#3d4039" opacity="0.94"/>
<polygon points="865.6,534.7 871.9,537.1 855.7,543.0 849.5,540.7" fill="#757871" opacity="0.97"/>
<polygon points="881.0,556.9 865.0,562.8 865.0,561.9 881.0,556.0" fill="#424846" opacity="0.94"/>
<polygon points="865.0,562.8 838.7,553.0 838.7,552.1 865.0,561.9" fill="#323836" opacity="0.94"/>
<polygon points="854.6,546.2 881.0,556.0 865.0,561.9 838.7,552.1" fill="#6a706e" opacity="0.97"/>
<polygon points="869.6,554.0 854.3,559.6 854.3,548.9 869.6,543.2" fill="#a79d8b" opacity="0.94"/>
<polygon points="854.3,559.6 848.3,557.4 848.3,546.7 854.3,548.9" fill="#978d7b" opacity="0.94"/>
<polygon points="863.7,541.0 869.6,543.2 854.3,548.9 848.3,546.7" fill="#cfc5b3" opacity="0.97"/>
<polygon points="870.2,543.1 854.1,549.1 854.1,546.3 870.2,540.3" fill="#4d5049" opacity="0.94"/>
<polygon points="854.1,549.1 847.8,546.8 847.8,544.0 854.1,546.3" fill="#3d4039" opacity="0.94"/>
<polygon points="863.9,538.0 870.2,540.3 854.1,546.3 847.8,544.0" fill="#757871" opacity="0.97"/>
<polygon points="867.9,557.2 852.6,562.9 852.6,552.2 867.9,546.5" fill="#818d86" opacity="0.94"/>
<polygon points="852.6,562.9 846.7,560.7 846.7,550.0 852.6,552.2" fill="#717d76" opacity="0.94"/>
<polygon points="862.0,544.3 867.9,546.5 852.6,552.2 846.7,550.0" fill="#a9b5ae" opacity="0.97"/>
<polygon points="868.5,546.4 852.4,552.4 852.4,549.5 868.5,543.6" fill="#4d5049" opacity="0.94"/>
<polygon points="852.4,552.4 846.1,550.0 846.1,547.2 852.4,549.5" fill="#3d4039" opacity="0.94"/>
<polygon points="862.2,541.3 868.5,543.6 852.4,549.5 846.1,547.2" fill="#757871" opacity="0.97"/>
<polygon points="892.9,570.1 878.4,575.5 878.4,574.6 892.9,569.2" fill="#424846" opacity="0.94"/>
<polygon points="878.4,575.5 862.8,569.7 862.8,568.9 878.4,574.6" fill="#323836" opacity="0.94"/>
<polygon points="877.4,563.5 892.9,569.2 878.4,574.6 862.8,568.9" fill="#6a706e" opacity="0.97"/>
<polygon points="891.9,569.1 877.9,574.3 877.9,564.4 891.9,559.2" fill="#a79d8b" opacity="0.94"/>
<polygon points="877.9,574.3 863.9,569.1 863.9,559.2 877.9,564.4" fill="#978d7b" opacity="0.94"/>
<polygon points="877.9,554.0 891.9,559.2 877.9,564.4 863.9,559.2" fill="#cfc5b3" opacity="0.97"/>
<polygon points="892.6,559.2 877.9,564.7 877.9,558.6 892.6,553.2" fill="#4d5049" opacity="0.94"/>
<polygon points="877.9,564.7 863.2,559.2 863.2,553.2 877.9,558.6" fill="#3d4039" opacity="0.94"/>
<polygon points="877.9,547.7 892.6,553.2 877.9,558.6 863.2,553.2" fill="#757871" opacity="0.97"/>
<polygon points="924.8,571.7 909.2,577.5 909.2,576.6 924.8,570.9" fill="#424846" opacity="0.94"/>
<polygon points="909.2,577.5 895.6,572.4 895.6,571.6 909.2,576.6" fill="#323836" opacity="0.94"/>
<polygon points="911.2,565.8 924.8,570.9 909.2,576.6 895.6,571.6" fill="#6a706e" opacity="0.97"/>
<polygon points="923.8,570.7 908.8,576.3 908.8,570.1 923.8,564.6" fill="#90988f" opacity="0.94"/>
<polygon points="908.8,576.3 896.5,571.7 896.5,565.6 908.8,570.1" fill="#80887f" opacity="0.94"/>
<polygon points="911.5,560.0 923.8,564.6 908.8,570.1 896.5,565.6" fill="#b8c0b7" opacity="0.97"/>
<polygon points="924.5,564.5 908.7,570.4 908.7,564.5 924.5,558.7" fill="#4d5049" opacity="0.94"/>
<polygon points="908.7,570.4 895.8,565.6 895.8,559.8 908.7,564.5" fill="#3d4039" opacity="0.94"/>
<polygon points="911.6,553.9 924.5,558.7 908.7,564.5 895.8,559.8" fill="#757871" opacity="0.97"/>
<polygon points="904.9,596.6 882.3,605.0 882.3,588.1 904.9,579.7" fill="#6d7f79" opacity="0.94"/>
<polygon points="882.3,605.0 872.2,601.2 872.2,584.3 882.3,588.1" fill="#5d6f69" opacity="0.94"/>
<polygon points="894.7,576.0 904.9,579.7 882.3,588.1 872.2,584.3" fill="#95a7a1" opacity="0.97"/>
<polygon points="905.7,579.6 882.0,588.4 882.0,583.6 905.7,574.8" fill="#3e524d" opacity="0.94"/>
<polygon points="882.0,588.4 871.3,584.5 871.3,579.6 882.0,583.6" fill="#2e423d" opacity="0.94"/>
<polygon points="895.0,570.9 905.7,574.8 882.0,583.6 871.3,579.6" fill="#667a75" opacity="0.97"/>
<polygon points="1005.6,603.4 992.5,608.3 992.5,607.4 1005.6,602.6" fill="#424846" opacity="0.94"/>
<polygon points="992.5,608.3 979.5,603.5 979.5,602.6 992.5,607.4" fill="#323836" opacity="0.94"/>
<polygon points="992.6,597.8 1005.6,602.6 992.5,607.4 979.5,602.6" fill="#6a706e" opacity="0.97"/>
<polygon points="1004.7,602.4 992.1,607.1 992.1,599.4 1004.7,594.7" fill="#a79d8b" opacity="0.94"/>
<polygon points="992.1,607.1 980.4,602.8 980.4,595.0 992.1,599.4" fill="#978d7b" opacity="0.94"/>
<polygon points="993.0,590.4 1004.7,594.7 992.1,599.4 980.4,595.0" fill="#cfc5b3" opacity="0.97"/>
<polygon points="1005.3,594.7 992.1,599.6 992.1,594.0 1005.3,589.1" fill="#4d5049" opacity="0.94"/>
<polygon points="992.1,599.6 979.8,595.0 979.8,589.5 992.1,594.0" fill="#3d4039" opacity="0.94"/>
<polygon points="993.0,584.6 1005.3,589.1 992.1,594.0 979.8,589.5" fill="#757871" opacity="0.97"/>
<polygon points="915.4,607.4 892.0,616.1 892.0,615.1 915.4,606.4" fill="#424846" opacity="0.94"/>
<polygon points="892.0,616.1 858.3,603.7 858.3,602.7 892.0,615.1" fill="#323836" opacity="0.94"/>
<polygon points="881.8,594.0 915.4,606.4 892.0,615.1 858.3,602.7" fill="#6a706e" opacity="0.97"/>
<polygon points="903.2,602.2 880.7,610.6 880.7,593.7 903.2,585.3" fill="#97a294" opacity="0.94"/>
<polygon points="880.7,610.6 870.5,606.9 870.5,590.0 880.7,593.7" fill="#879284" opacity="0.94"/>
<polygon points="893.1,581.6 903.2,585.3 880.7,593.7 870.5,590.0" fill="#bfcabc" opacity="0.97"/>
<polygon points="904.1,585.2 880.4,594.0 880.4,589.2 904.1,580.4" fill="#3e524d" opacity="0.94"/>
<polygon points="880.4,594.0 869.7,590.1 869.7,585.3 880.4,589.2" fill="#2e423d" opacity="0.94"/>
<polygon points="893.4,576.5 904.1,580.4 880.4,589.2 869.7,585.3" fill="#667a75" opacity="0.97"/>
<polygon points="901.6,607.9 879.1,616.2 879.1,599.3 901.6,591.0" fill="#6d7f79" opacity="0.94"/>
<polygon points="879.1,616.2 868.9,612.5 868.9,595.6 879.1,599.3" fill="#5d6f69" opacity="0.94"/>
<polygon points="891.5,587.2 901.6,591.0 879.1,599.3 868.9,595.6" fill="#95a7a1" opacity="0.97"/>
<polygon points="902.4,590.8 878.7,599.6 878.7,594.8 902.4,586.0" fill="#3e524d" opacity="0.94"/>
<polygon points="878.7,599.6 868.1,595.7 868.1,590.9 878.7,594.8" fill="#2e423d" opacity="0.94"/>
<polygon points="891.8,582.1 902.4,586.0 878.7,594.8 868.1,590.9" fill="#667a75" opacity="0.97"/>
<polygon points="736.3,657.9 694.8,673.3 694.8,672.3 736.3,656.9" fill="#424846" opacity="0.94"/>
<polygon points="694.8,673.3 646.5,655.4 646.5,654.4 694.8,672.3" fill="#323836" opacity="0.94"/>
<polygon points="688.0,639.0 736.3,656.9 694.8,672.3 646.5,654.4" fill="#6a706e" opacity="0.97"/>
<polygon points="734.6,656.8 694.6,671.6 694.6,657.3 734.6,642.5" fill="#c4b9a0" opacity="0.94"/>
<polygon points="694.6,671.6 648.2,654.4 648.2,640.1 694.6,657.3" fill="#b4a990" opacity="0.94"/>
<polygon points="688.2,625.3 734.6,642.5 694.6,657.3 648.2,640.1" fill="#ece1c8" opacity="0.97"/>
<polygon points="714.6,641.3 691.4,649.9 691.4,632.9 714.6,624.3" fill="#aea289" opacity="0.94"/>
<polygon points="691.4,649.9 668.2,641.3 668.2,624.3 691.4,632.9" fill="#9e9279" opacity="0.94"/>
<polygon points="691.4,615.8 714.6,624.3 691.4,632.9 668.2,624.3" fill="#d6cab1" opacity="0.97"/>
<polygon points="715.7,624.3 691.4,633.4 691.4,619.9 715.7,610.9" fill="#4d5f57" opacity="0.94"/>
<polygon points="691.4,633.4 667.1,624.3 667.1,610.9 691.4,619.9" fill="#3d4f47" opacity="0.94"/>
<polygon points="691.4,601.9 715.7,610.9 691.4,619.9 667.1,610.9" fill="#75877f" opacity="0.97"/>
<polygon points="596.9,659.1 558.1,673.5 558.1,672.6 596.9,658.2" fill="#424846" opacity="0.94"/>
<polygon points="558.1,673.5 514.8,657.4 514.8,656.5 558.1,672.6" fill="#323836" opacity="0.94"/>
<polygon points="553.6,642.2 596.9,658.2 558.1,672.6 514.8,656.5" fill="#6a706e" opacity="0.97"/>
<polygon points="595.3,658.2 558.0,672.0 558.0,657.6 595.3,643.8" fill="#c4b9a0" opacity="0.94"/>
<polygon points="558.0,672.0 516.4,656.6 516.4,642.2 558.0,657.6" fill="#b4a990" opacity="0.94"/>
<polygon points="553.7,628.4 595.3,643.8 558.0,657.6 516.4,642.2" fill="#ece1c8" opacity="0.97"/>
<polygon points="596.9,643.9 558.1,658.2 558.1,649.6 596.9,635.3" fill="#4d5f57" opacity="0.94"/>
<polygon points="558.1,658.2 514.8,642.2 514.8,633.6 558.1,649.6" fill="#3d4f47" opacity="0.94"/>
<polygon points="553.6,619.2 596.9,635.3 558.1,649.6 514.8,633.6" fill="#75877f" opacity="0.97"/>
<polygon points="577.8,654.3 567.4,658.2 567.4,640.4 577.8,636.5" fill="#aea289" opacity="0.94"/>
<polygon points="567.4,658.2 557.0,654.3 557.0,636.5 567.4,640.4" fill="#9e9279" opacity="0.94"/>
<polygon points="567.4,632.7 577.8,636.5 567.4,640.4 557.0,636.5" fill="#d6cab1" opacity="0.97"/>
<polygon points="575.7,636.5 567.4,639.6 567.4,624.1 575.7,621.0" fill="#4d5f57" opacity="0.94"/>
<polygon points="567.4,639.6 559.1,636.5 559.1,621.0 567.4,624.1" fill="#3d4f47" opacity="0.94"/>
<polygon points="567.4,618.0 575.7,621.0 567.4,624.1 559.1,621.0" fill="#75877f" opacity="0.97"/>
<polygon points="887.5,680.2 852.1,693.3 852.1,692.2 887.5,679.1" fill="#424846" opacity="0.94"/>
<polygon points="852.1,693.3 817.6,680.5 817.6,679.5 852.1,692.2" fill="#323836" opacity="0.94"/>
<polygon points="853.0,666.4 887.5,679.1 852.1,692.2 817.6,679.5" fill="#6a706e" opacity="0.97"/>
<polygon points="886.1,679.2 852.1,691.8 852.1,679.5 886.1,666.9" fill="#71878f" opacity="0.94"/>
<polygon points="852.1,691.8 818.9,679.5 818.9,667.2 852.1,679.5" fill="#61777f" opacity="0.94"/>
<polygon points="852.9,654.6 886.1,666.9 852.1,679.5 818.9,667.2" fill="#99afb7" opacity="0.97"/>
<polygon points="876.8,667.9 857.0,675.2 857.0,649.6 876.8,642.3" fill="#4d6570" opacity="0.94"/>
<polygon points="857.0,675.2 836.4,667.6 836.4,642.0 857.0,649.6" fill="#3d5560" opacity="0.94"/>
<polygon points="856.2,634.7 876.8,642.3 857.0,649.6 836.4,642.0" fill="#758d98" opacity="0.97"/>
<polygon points="871.9,642.3 856.9,647.8 856.9,632.1 871.9,626.6" fill="#8d9b9e" opacity="0.94"/>
<polygon points="856.9,647.8 841.3,642.0 841.3,626.3 856.9,632.1" fill="#7d8b8e" opacity="0.94"/>
<polygon points="856.3,620.8 871.9,626.6 856.9,632.1 841.3,626.3" fill="#b5c3c6" opacity="0.97"/>
<polygon points="869.2,626.6 856.9,631.1 856.9,622.5 869.2,618.0" fill="#1e343e" opacity="0.94"/>
<polygon points="856.9,631.1 844.0,626.4 844.0,617.8 856.9,622.5" fill="#0e242e" opacity="0.94"/>
<polygon points="856.3,613.2 869.2,618.0 856.9,622.5 844.0,617.8" fill="#465c66" opacity="0.97"/>
<polygon points="813.4,695.2 785.3,705.6 785.3,704.6 813.4,694.2" fill="#424846" opacity="0.94"/>
<polygon points="785.3,705.6 755.1,694.4 755.1,693.5 785.3,704.6" fill="#323836" opacity="0.94"/>
<polygon points="783.3,683.1 813.4,694.2 785.3,704.6 755.1,693.5" fill="#6a706e" opacity="0.97"/>
<polygon points="812.3,694.2 785.2,704.2 785.2,692.2 812.3,682.2" fill="#71878f" opacity="0.94"/>
<polygon points="785.2,704.2 756.3,693.5 756.3,681.5 785.2,692.2" fill="#61777f" opacity="0.94"/>
<polygon points="783.3,671.4 812.3,682.2 785.2,692.2 756.3,681.5" fill="#99afb7" opacity="0.97"/>
<polygon points="802.8,682.2 785.5,688.7 785.5,655.0 802.8,648.6" fill="#71878f" opacity="0.94"/>
<polygon points="785.5,688.7 765.8,681.4 765.8,647.7 785.5,655.0" fill="#61777f" opacity="0.94"/>
<polygon points="783.1,641.3 802.8,648.6 785.5,655.0 765.8,647.7" fill="#99afb7" opacity="0.97"/>
<polygon points="798.3,648.5 785.2,653.4 785.2,632.8 798.3,627.9" fill="#71878f" opacity="0.94"/>
<polygon points="785.2,653.4 770.2,647.9 770.2,627.2 785.2,632.8" fill="#61777f" opacity="0.94"/>
<polygon points="783.4,622.4 798.3,627.9 785.2,632.8 770.2,627.2" fill="#99afb7" opacity="0.97"/>
<polygon points="795.8,627.9 785.0,631.9 785.0,625.8 795.8,621.8" fill="#1e343e" opacity="0.94"/>
<polygon points="785.0,631.9 772.7,627.3 772.7,621.3 785.0,625.8" fill="#0e242e" opacity="0.94"/>
<polygon points="783.5,617.3 795.8,621.8 785.0,625.8 772.7,621.3" fill="#465c66" opacity="0.97"/>
<polygon points="868.8,707.1 836.2,719.2 836.2,718.2 868.8,706.1" fill="#424846" opacity="0.94"/>
<polygon points="836.2,719.2 800.2,705.9 800.2,704.8 836.2,718.2" fill="#323836" opacity="0.94"/>
<polygon points="832.8,692.8 868.8,706.1 836.2,718.2 800.2,704.8" fill="#6a706e" opacity="0.97"/>
<polygon points="867.4,706.1 836.1,717.7 836.1,697.0 867.4,685.4" fill="#71878f" opacity="0.94"/>
<polygon points="836.1,717.7 801.6,704.9 801.6,684.2 836.1,697.0" fill="#61777f" opacity="0.94"/>
<polygon points="832.9,672.6 867.4,685.4 836.1,697.0 801.6,684.2" fill="#99afb7" opacity="0.97"/>
<polygon points="948.6,707.2 918.1,718.5 918.1,717.5 948.6,706.2" fill="#424846" opacity="0.94"/>
<polygon points="918.1,718.5 884.6,706.1 884.6,705.0 918.1,717.5" fill="#323836" opacity="0.94"/>
<polygon points="915.0,693.8 948.6,706.2 918.1,717.5 884.6,705.0" fill="#6a706e" opacity="0.97"/>
<polygon points="947.3,706.2 918.0,717.0 918.0,701.9 947.3,691.0" fill="#71878f" opacity="0.94"/>
<polygon points="918.0,717.0 885.8,705.1 885.8,689.9 918.0,701.9" fill="#61777f" opacity="0.94"/>
<polygon points="915.1,679.1 947.3,691.0 918.0,701.9 885.8,689.9" fill="#99afb7" opacity="0.97"/>
<polygon points="850.3,685.1 835.3,690.7 835.3,590.8 850.3,585.2" fill="#5f7986" opacity="0.94"/>
<polygon points="835.3,690.7 818.7,684.5 818.7,584.6 835.3,590.8" fill="#4f6976" opacity="0.94"/>
<polygon points="833.7,579.1 850.3,585.2 835.3,590.8 818.7,584.6" fill="#87a1ae" opacity="0.97"/>
<polygon points="938.3,692.0 921.3,698.3 921.3,666.9 938.3,660.6" fill="#71878f" opacity="0.94"/>
<polygon points="921.3,698.3 901.4,690.9 901.4,659.5 921.3,666.9" fill="#61777f" opacity="0.94"/>
<polygon points="918.3,653.2 938.3,660.6 921.3,666.9 901.4,659.5" fill="#99afb7" opacity="0.97"/>
<polygon points="933.9,660.4 921.0,665.2 921.0,646.0 933.9,641.2" fill="#4d6570" opacity="0.94"/>
<polygon points="921.0,665.2 905.8,659.6 905.8,640.3 921.0,646.0" fill="#3d5560" opacity="0.94"/>
<polygon points="918.7,635.6 933.9,641.2 921.0,646.0 905.8,640.3" fill="#758d98" opacity="0.97"/>
<polygon points="931.4,641.1 920.8,645.0 920.8,636.4 931.4,632.5" fill="#1e343e" opacity="0.94"/>
<polygon points="920.8,645.0 908.3,640.4 908.3,631.8 920.8,636.4" fill="#0e242e" opacity="0.94"/>
<polygon points="918.9,627.9 931.4,632.5 920.8,636.4 908.3,631.8" fill="#465c66" opacity="0.97"/>
<polygon points="847.0,585.2 835.1,589.6 835.1,544.2 847.0,539.8" fill="#4d6570" opacity="0.94"/>
<polygon points="835.1,589.6 822.0,584.7 822.0,539.3 835.1,544.2" fill="#3d5560" opacity="0.94"/>
<polygon points="833.9,534.9 847.0,539.8 835.1,544.2 822.0,539.3" fill="#758d98" opacity="0.97"/>
<polygon points="840.4,539.6 834.8,541.7 834.8,516.0 840.4,513.9" fill="#1e343e" opacity="0.94"/>
<polygon points="834.8,541.7 828.6,539.4 828.6,513.7 834.8,516.0" fill="#0e242e" opacity="0.94"/>
<polygon points="834.2,511.6 840.4,513.9 834.8,516.0 828.6,513.7" fill="#465c66" opacity="0.97"/>
<polygon points="816.6,723.3 784.1,735.3 784.1,734.4 816.6,722.3" fill="#424846" opacity="0.94"/>
<polygon points="784.1,735.3 755.6,724.8 755.6,723.8 784.1,734.4" fill="#323836" opacity="0.94"/>
<polygon points="788.2,711.8 816.6,722.3 784.1,734.4 755.6,723.8" fill="#6a706e" opacity="0.97"/>
<polygon points="815.5,722.4 784.2,733.9 784.2,721.9 815.5,710.3" fill="#71878f" opacity="0.94"/>
<polygon points="784.2,733.9 756.8,723.8 756.8,711.8 784.2,721.9" fill="#61777f" opacity="0.94"/>
<polygon points="788.1,700.2 815.5,710.3 784.2,721.9 756.8,711.8" fill="#99afb7" opacity="0.97"/>
<polygon points="570.3,724.8 536.3,737.4 536.3,736.4 570.3,723.8" fill="#424846" opacity="0.94"/>
<polygon points="536.3,737.4 507.6,726.7 507.6,725.7 536.3,736.4" fill="#323836" opacity="0.94"/>
<polygon points="541.5,713.1 570.3,723.8 536.3,736.4 507.6,725.7" fill="#6a706e" opacity="0.97"/>
<polygon points="902.6,724.6 868.0,737.4 868.0,736.4 902.6,723.5" fill="#424846" opacity="0.94"/>
<polygon points="868.0,737.4 832.2,724.1 832.2,723.1 868.0,736.4" fill="#323836" opacity="0.94"/>
<polygon points="866.8,710.3 902.6,723.5 868.0,736.4 832.2,723.1" fill="#6a706e" opacity="0.97"/>
<polygon points="569.1,723.8 536.4,735.9 536.4,721.0 569.1,708.9" fill="#7c8e89" opacity="0.94"/>
<polygon points="536.4,735.9 508.8,725.7 508.8,710.8 536.4,721.0" fill="#6c7e79" opacity="0.94"/>
<polygon points="541.4,698.7 569.1,708.9 536.4,721.0 508.8,710.8" fill="#a4b6b1" opacity="0.97"/>
<polygon points="805.5,710.8 785.4,718.2 785.4,684.9 805.5,677.5" fill="#71878f" opacity="0.94"/>
<polygon points="785.4,718.2 766.8,711.3 766.8,678.0 785.4,684.9" fill="#61777f" opacity="0.94"/>
<polygon points="786.8,670.6 805.5,677.5 785.4,684.9 766.8,678.0" fill="#99afb7" opacity="0.97"/>
<polygon points="901.3,723.5 868.0,735.9 868.0,721.8 901.3,709.5" fill="#71878f" opacity="0.94"/>
<polygon points="868.0,735.9 833.5,723.1 833.5,709.1 868.0,721.8" fill="#61777f" opacity="0.94"/>
<polygon points="866.8,696.7 901.3,709.5 868.0,721.8 833.5,709.1" fill="#99afb7" opacity="0.97"/>
<polygon points="800.8,677.6 785.6,683.2 785.6,662.8 800.8,657.2" fill="#8d9b9e" opacity="0.94"/>
<polygon points="785.6,683.2 771.5,678.0 771.5,657.6 785.6,662.8" fill="#7d8b8e" opacity="0.94"/>
<polygon points="786.7,652.0 800.8,657.2 785.6,662.8 771.5,657.6" fill="#b5c3c6" opacity="0.97"/>
<polygon points="798.2,657.2 785.7,661.8 785.7,655.8 798.2,651.2" fill="#1e343e" opacity="0.94"/>
<polygon points="785.7,661.8 774.1,657.6 774.1,651.5 785.7,655.8" fill="#0e242e" opacity="0.94"/>
<polygon points="786.6,646.9 798.2,651.2 785.7,655.8 774.1,651.5" fill="#465c66" opacity="0.97"/>
<polygon points="892.1,710.2 872.8,717.3 872.8,688.2 892.1,681.1" fill="#71878f" opacity="0.94"/>
<polygon points="872.8,717.3 851.4,709.4 851.4,680.3 872.8,688.2" fill="#61777f" opacity="0.94"/>
<polygon points="870.7,673.2 892.1,681.1 872.8,688.2 851.4,680.3" fill="#99afb7" opacity="0.97"/>
<polygon points="557.7,710.7 535.5,718.9 535.5,711.2 557.7,703.0" fill="#97a294" opacity="0.94"/>
<polygon points="535.5,718.9 516.1,711.7 516.1,704.0 535.5,711.2" fill="#879284" opacity="0.94"/>
<polygon points="538.3,695.8 557.7,703.0 535.5,711.2 516.1,704.0" fill="#bfcabc" opacity="0.97"/>
<polygon points="556.5,703.0 535.6,710.8 535.6,707.8 556.5,700.1" fill="#3e524d" opacity="0.94"/>
<polygon points="535.6,710.8 517.4,704.0 517.4,701.1 535.6,707.8" fill="#2e423d" opacity="0.94"/>
<polygon points="538.2,693.4 556.5,700.1 535.6,707.8 517.4,701.1" fill="#667a75" opacity="0.97"/>
<polygon points="887.2,681.0 872.6,686.4 872.6,668.6 887.2,663.1" fill="#5f7986" opacity="0.94"/>
<polygon points="872.6,686.4 856.3,680.4 856.3,662.6 872.6,668.6" fill="#4f6976" opacity="0.94"/>
<polygon points="871.0,657.1 887.2,663.1 872.6,668.6 856.3,662.6" fill="#87a1ae" opacity="0.97"/>
<polygon points="884.4,663.1 872.4,667.5 872.4,658.9 884.4,654.5" fill="#1e343e" opacity="0.94"/>
<polygon points="872.4,667.5 859.1,662.6 859.1,654.0 872.4,658.9" fill="#0e242e" opacity="0.94"/>
<polygon points="871.1,649.6 884.4,654.5 872.4,658.9 859.1,654.0" fill="#465c66" opacity="0.97"/>
<polygon points="628.3,730.4 608.6,737.7 608.6,722.8 628.3,715.5" fill="#7c8e89" opacity="0.94"/>
<polygon points="608.6,737.7 599.9,734.4 599.9,719.5 608.6,722.8" fill="#6c7e79" opacity="0.94"/>
<polygon points="619.5,712.2 628.3,715.5 608.6,722.8 599.9,719.5" fill="#a4b6b1" opacity="0.97"/>
<polygon points="629.0,715.4 608.4,723.0 608.4,718.9 629.0,711.2" fill="#3e524d" opacity="0.94"/>
<polygon points="608.4,723.0 599.2,719.6 599.2,715.4 608.4,718.9" fill="#2e423d" opacity="0.94"/>
<polygon points="619.8,707.8 629.0,711.2 608.4,718.9 599.2,715.4" fill="#667a75" opacity="0.97"/>
<polygon points="989.2,737.7 958.9,748.9 958.9,747.8 989.2,736.6" fill="#424846" opacity="0.94"/>
<polygon points="958.9,748.9 917.4,733.5 917.4,732.4 958.9,747.8" fill="#323836" opacity="0.94"/>
<polygon points="947.7,721.2 989.2,736.6 958.9,747.8 917.4,732.4" fill="#6a706e" opacity="0.97"/>
<polygon points="987.9,736.5 958.7,747.3 958.7,730.1 987.9,719.3" fill="#71878f" opacity="0.94"/>
<polygon points="958.7,747.3 918.7,732.5 918.7,715.3 958.7,730.1" fill="#61777f" opacity="0.94"/>
<polygon points="947.9,704.5 987.9,719.3 958.7,730.1 918.7,715.3" fill="#99afb7" opacity="0.97"/>
<polygon points="641.9,739.8 621.5,747.3 621.5,746.3 641.9,738.8" fill="#424846" opacity="0.94"/>
<polygon points="621.5,747.3 592.4,736.5 592.4,735.6 621.5,746.3" fill="#323836" opacity="0.94"/>
<polygon points="612.8,728.0 641.9,738.8 621.5,746.3 592.4,735.6" fill="#6a706e" opacity="0.97"/>
<polygon points="631.4,735.2 611.7,742.4 611.7,727.5 631.4,720.2" fill="#aaae9d" opacity="0.94"/>
<polygon points="611.7,742.4 603.0,739.2 603.0,724.3 611.7,727.5" fill="#9a9e8d" opacity="0.94"/>
<polygon points="622.6,717.0 631.4,720.2 611.7,727.5 603.0,724.3" fill="#d2d6c5" opacity="0.97"/>
<polygon points="632.1,720.1 611.5,727.8 611.5,723.6 632.1,716.0" fill="#3e524d" opacity="0.94"/>
<polygon points="611.5,727.8 602.3,724.4 602.3,720.2 611.5,723.6" fill="#2e423d" opacity="0.94"/>
<polygon points="622.9,712.6 632.1,716.0 611.5,723.6 602.3,720.2" fill="#667a75" opacity="0.97"/>
<polygon points="970.7,719.4 959.1,723.8 959.1,632.1 970.7,627.8" fill="#5f7986" opacity="0.94"/>
<polygon points="959.1,723.8 935.9,715.2 935.9,623.5 959.1,632.1" fill="#4f6976" opacity="0.94"/>
<polygon points="947.5,619.2 970.7,627.8 959.1,632.1 935.9,623.5" fill="#87a1ae" opacity="0.97"/>
<polygon points="968.2,627.5 958.3,631.2 958.3,610.8 968.2,607.2" fill="#1e343e" opacity="0.94"/>
<polygon points="958.3,631.2 938.4,623.8 938.4,603.4 958.3,610.8" fill="#0e242e" opacity="0.94"/>
<polygon points="948.3,599.8 968.2,607.2 958.3,610.8 938.4,603.4" fill="#465c66" opacity="0.97"/>
<polygon points="634.5,739.9 614.9,747.2 614.9,732.2 634.5,725.0" fill="#aaae9d" opacity="0.94"/>
<polygon points="614.9,747.2 606.1,743.9 606.1,729.0 614.9,732.2" fill="#9a9e8d" opacity="0.94"/>
<polygon points="625.7,721.7 634.5,725.0 614.9,732.2 606.1,729.0" fill="#d2d6c5" opacity="0.97"/>
<polygon points="635.2,724.9 614.6,732.5 614.6,728.4 635.2,720.7" fill="#3e524d" opacity="0.94"/>
<polygon points="614.6,732.5 605.4,729.1 605.4,724.9 614.6,728.4" fill="#2e423d" opacity="0.94"/>
<polygon points="626.0,717.3 635.2,720.7 614.6,728.4 605.4,724.9" fill="#667a75" opacity="0.97"/>
<polygon points="581.8,744.8 557.3,753.9 557.3,752.9 581.8,743.8" fill="#424846" opacity="0.94"/>
<polygon points="557.3,753.9 527.7,742.9 527.7,741.9 557.3,752.9" fill="#323836" opacity="0.94"/>
<polygon points="552.2,732.9 581.8,743.8 557.3,752.9 527.7,741.9" fill="#6a706e" opacity="0.97"/>
<polygon points="580.7,743.8 557.2,752.5 557.2,738.2 580.7,729.5" fill="#97a294" opacity="0.94"/>
<polygon points="557.2,752.5 528.7,742.0 528.7,727.6 557.2,738.2" fill="#879284" opacity="0.94"/>
<polygon points="552.3,718.9 580.7,729.5 557.2,738.2 528.7,727.6" fill="#bfcabc" opacity="0.97"/>
<polygon points="916.0,719.5 896.7,726.7 896.7,715.0 916.0,707.9" fill="#5f7986" opacity="0.94"/>
<polygon points="896.7,726.7 874.2,718.3 874.2,706.7 896.7,715.0" fill="#4f6976" opacity="0.94"/>
<polygon points="893.5,699.5 916.0,707.9 896.7,715.0 874.2,706.7" fill="#87a1ae" opacity="0.97"/>
<polygon points="914.8,707.9 896.6,714.6 896.6,711.7 914.8,704.9" fill="#1e343e" opacity="0.94"/>
<polygon points="896.6,714.6 875.4,706.7 875.4,703.8 896.6,711.7" fill="#0e242e" opacity="0.94"/>
<polygon points="893.6,697.1 914.8,704.9 896.6,711.7 875.4,703.8" fill="#465c66" opacity="0.97"/>
<polygon points="571.5,730.6 555.5,736.5 555.5,729.2 571.5,723.2" fill="#6d7f79" opacity="0.94"/>
<polygon points="555.5,736.5 535.6,729.2 535.6,721.8 555.5,729.2" fill="#5d6f69" opacity="0.94"/>
<polygon points="551.6,715.9 571.5,723.2 555.5,729.2 535.6,721.8" fill="#95a7a1" opacity="0.97"/>
<polygon points="927.3,744.8 897.7,755.7 897.7,754.7 927.3,743.8" fill="#424846" opacity="0.94"/>
<polygon points="897.7,755.7 864.2,743.3 864.2,742.3 897.7,754.7" fill="#323836" opacity="0.94"/>
<polygon points="893.8,731.4 927.3,743.8 897.7,754.7 864.2,742.3" fill="#6a706e" opacity="0.97"/>
<polygon points="570.4,723.2 555.4,728.8 555.4,725.8 570.4,720.3" fill="#3e524d" opacity="0.94"/>
<polygon points="555.4,728.8 536.7,721.8 536.7,718.9 555.4,725.8" fill="#2e423d" opacity="0.94"/>
<polygon points="551.7,713.3 570.4,720.3 555.4,725.8 536.7,718.9" fill="#667a75" opacity="0.97"/>
<polygon points="926.1,743.8 897.6,754.3 897.6,731.7 926.1,721.2" fill="#8d9b9e" opacity="0.94"/>
<polygon points="897.6,754.3 865.4,742.4 865.4,719.8 897.6,731.7" fill="#7d8b8e" opacity="0.94"/>
<polygon points="893.9,709.3 926.1,721.2 897.6,731.7 865.4,719.8" fill="#b5c3c6" opacity="0.97"/>
<polygon points="1063.2,755.9 1048.9,761.2 1048.9,751.1 1063.2,745.8" fill="#804c3a" opacity="0.94"/>
<polygon points="1048.9,761.2 1043.6,759.2 1043.6,749.1 1048.9,751.1" fill="#703c2a" opacity="0.94"/>
<polygon points="1057.8,743.8 1063.2,745.8 1048.9,751.1 1043.6,749.1" fill="#a87462" opacity="0.97"/>
<polygon points="1063.6,745.7 1048.7,751.3 1048.7,748.7 1063.6,743.2" fill="#4f2d23" opacity="0.94"/>
<polygon points="1048.7,751.3 1043.1,749.2 1043.1,746.7 1048.7,748.7" fill="#3f1d13" opacity="0.94"/>
<polygon points="1058.0,741.1 1063.6,743.2 1048.7,748.7 1043.1,746.7" fill="#77554b" opacity="0.97"/>
<polygon points="1066.5,761.7 1051.7,767.2 1051.7,766.3 1066.5,760.9" fill="#424846" opacity="0.94"/>
<polygon points="1051.7,767.2 1034.0,760.6 1034.0,759.8 1051.7,766.3" fill="#323836" opacity="0.94"/>
<polygon points="1048.8,754.3 1066.5,760.9 1051.7,766.3 1034.0,759.8" fill="#6a706e" opacity="0.97"/>
<polygon points="696.1,760.2 678.0,766.9 678.0,665.4 696.1,658.8" fill="#7c8e89" opacity="0.94"/>
<polygon points="678.0,766.9 660.9,760.6 660.9,659.1 678.0,665.4" fill="#6c7e79" opacity="0.94"/>
<polygon points="678.9,652.4 696.1,658.8 678.0,665.4 660.9,659.1" fill="#a4b6b1" opacity="0.97"/>
<polygon points="1060.0,758.7 1045.8,763.9 1045.8,753.8 1060.0,748.6" fill="#804c3a" opacity="0.94"/>
<polygon points="1045.8,763.9 1040.5,761.9 1040.5,751.9 1045.8,753.8" fill="#703c2a" opacity="0.94"/>
<polygon points="1054.7,746.6 1060.0,748.6 1045.8,753.8 1040.5,751.9" fill="#a87462" opacity="0.97"/>
<polygon points="1060.5,748.5 1045.6,754.0 1045.6,751.5 1060.5,746.0" fill="#4f2d23" opacity="0.94"/>
<polygon points="1045.6,754.0 1040.0,751.9 1040.0,749.4 1045.6,751.5" fill="#3f1d13" opacity="0.94"/>
<polygon points="1054.9,743.9 1060.5,746.0 1045.6,751.5 1040.0,749.4" fill="#77554b" opacity="0.97"/>
<polygon points="1056.9,761.4 1042.7,766.7 1042.7,756.6 1056.9,751.3" fill="#975d43" opacity="0.94"/>
<polygon points="1042.7,766.7 1037.3,764.7 1037.3,754.6 1042.7,756.6" fill="#874d33" opacity="0.94"/>
<polygon points="1051.6,749.3 1056.9,751.3 1042.7,756.6 1037.3,754.6" fill="#bf856b" opacity="0.97"/>
<polygon points="1057.4,751.2 1042.5,756.8 1042.5,754.2 1057.4,748.7" fill="#4f2d23" opacity="0.94"/>
<polygon points="1042.5,756.8 1036.9,754.7 1036.9,752.1 1042.5,754.2" fill="#3f1d13" opacity="0.94"/>
<polygon points="1051.8,746.6 1057.4,748.7 1042.5,754.2 1036.9,752.1" fill="#77554b" opacity="0.97"/>
<polygon points="741.7,773.0 711.4,784.2 711.4,782.9 741.7,771.7" fill="#424846" opacity="0.94"/>
<polygon points="711.4,784.2 651.9,762.2 651.9,760.9 711.4,782.9" fill="#323836" opacity="0.94"/>
<polygon points="682.2,749.7 741.7,771.7 711.4,782.9 651.9,760.9" fill="#6a706e" opacity="0.97"/>
<polygon points="714.4,703.7 703.2,707.9 703.2,699.3 714.4,695.1" fill="#3e524d" opacity="0.94"/>
<polygon points="703.2,707.9 679.2,699.0 679.2,690.4 703.2,699.3" fill="#2e423d" opacity="0.94"/>
<polygon points="690.4,686.2 714.4,695.1 703.2,699.3 679.2,690.4" fill="#667a75" opacity="0.97"/>
<polygon points="264.8,779.7 236.8,790.1 236.8,789.0 264.8,778.6" fill="#424846" opacity="0.94"/>
<polygon points="236.8,790.1 178.4,768.5 178.4,767.4 236.8,789.0" fill="#323836" opacity="0.94"/>
<polygon points="206.4,757.0 264.8,778.6 236.8,789.0 178.4,767.4" fill="#6a706e" opacity="0.97"/>
<polygon points="263.2,778.4 236.2,788.4 236.2,765.2 263.2,755.2" fill="#6e8086" opacity="0.94"/>
<polygon points="236.2,788.4 180.0,767.6 180.0,744.4 236.2,765.2" fill="#5e7076" opacity="0.94"/>
<polygon points="207.0,734.4 263.2,755.2 236.2,765.2 180.0,744.4" fill="#96a8ae" opacity="0.97"/>
<polygon points="263.6,755.2 236.3,765.3 236.3,759.8 263.6,749.7" fill="#23353d" opacity="0.94"/>
<polygon points="236.3,765.3 179.6,744.3 179.6,738.7 236.3,759.8" fill="#13252d" opacity="0.94"/>
<polygon points="206.9,728.6 263.6,749.7 236.3,759.8 179.6,738.7" fill="#4b5d65" opacity="0.97"/>
<polygon points="937.3,774.0 906.9,785.3 906.9,784.2 937.3,772.9" fill="#424846" opacity="0.94"/>
<polygon points="906.9,785.3 863.9,769.3 863.9,768.3 906.9,784.2" fill="#323836" opacity="0.94"/>
<polygon points="894.3,757.0 937.3,772.9 906.9,784.2 863.9,768.3" fill="#6a706e" opacity="0.97"/>
<polygon points="935.9,772.8 906.6,783.6 906.6,771.1 935.9,760.3" fill="#71878f" opacity="0.94"/>
<polygon points="906.6,783.6 865.3,768.3 865.3,755.8 906.6,771.1" fill="#61777f" opacity="0.94"/>
<polygon points="894.6,745.0 935.9,760.3 906.6,771.1 865.3,755.8" fill="#99afb7" opacity="0.97"/>
<polygon points="15.4,793.6 13.6,794.3 13.6,785.5 15.4,784.8" fill="#474f4d" opacity="0.94"/>
<polygon points="13.6,794.3 -34.9,776.4 -34.9,767.5 13.6,785.5" fill="#373f3d" opacity="0.94"/>
<polygon points="-33.0,766.9 15.4,784.8 13.6,785.5 -34.9,767.5" fill="#6f7775" opacity="0.97"/>
<polygon points="926.6,760.4 909.6,766.7 909.6,740.6 926.6,734.3" fill="#4d6570" opacity="0.94"/>
<polygon points="909.6,766.7 884.0,757.2 884.0,731.1 909.6,740.6" fill="#3d5560" opacity="0.94"/>
<polygon points="901.0,724.8 926.6,734.3 909.6,740.6 884.0,731.1" fill="#758d98" opacity="0.97"/>
<polygon points="732.7,772.0 714.7,778.7 714.7,677.3 732.7,670.6" fill="#6d7f79" opacity="0.94"/>
<polygon points="714.7,778.7 697.5,772.4 697.5,670.9 714.7,677.3" fill="#5d6f69" opacity="0.94"/>
<polygon points="715.6,664.2 732.7,670.6 714.7,677.3 697.5,670.9" fill="#95a7a1" opacity="0.97"/>
<polygon points="921.5,733.9 908.6,738.7 908.6,722.7 921.5,718.0" fill="#71878f" opacity="0.94"/>
<polygon points="908.6,738.7 889.1,731.5 889.1,715.5 908.6,722.7" fill="#61777f" opacity="0.94"/>
<polygon points="902.0,710.8 921.5,718.0 908.6,722.7 889.1,715.5" fill="#99afb7" opacity="0.97"/>
<polygon points="918.6,717.8 908.0,721.7 908.0,713.1 918.6,709.2" fill="#1e343e" opacity="0.94"/>
<polygon points="908.0,721.7 892.0,715.8 892.0,707.2 908.0,713.1" fill="#0e242e" opacity="0.94"/>
<polygon points="902.6,703.2 918.6,709.2 908.0,713.1 892.0,707.2" fill="#465c66" opacity="0.97"/>
<polygon points="1106.3,770.1 1090.2,776.1 1090.2,765.5 1106.3,759.5" fill="#b58561" opacity="0.94"/>
<polygon points="1090.2,776.1 1085.3,774.3 1085.3,763.7 1090.2,765.5" fill="#a57551" opacity="0.94"/>
<polygon points="1101.4,757.7 1106.3,759.5 1090.2,765.5 1085.3,763.7" fill="#ddad89" opacity="0.97"/>
<polygon points="1106.8,759.4 1089.9,765.7 1089.9,763.4 1106.8,757.1" fill="#4f2d23" opacity="0.94"/>
<polygon points="1089.9,765.7 1084.8,763.8 1084.8,761.5 1089.9,763.4" fill="#3f1d13" opacity="0.94"/>
<polygon points="1101.7,755.2 1106.8,757.1 1089.9,763.4 1084.8,761.5" fill="#77554b" opacity="0.97"/>
<polygon points="1003.6,772.6 987.2,778.7 987.2,765.7 1003.6,759.6" fill="#975d43" opacity="0.94"/>
<polygon points="987.2,778.7 982.0,776.7 982.0,763.8 987.2,765.7" fill="#874d33" opacity="0.94"/>
<polygon points="998.4,757.7 1003.6,759.6 987.2,765.7 982.0,763.8" fill="#bf856b" opacity="0.97"/>
<polygon points="1004.2,759.5 986.9,765.9 986.9,763.4 1004.2,757.0" fill="#4f2d23" opacity="0.94"/>
<polygon points="986.9,765.9 981.4,763.9 981.4,761.4 986.9,763.4" fill="#3f1d13" opacity="0.94"/>
<polygon points="998.7,755.0 1004.2,757.0 986.9,763.4 981.4,761.4" fill="#77554b" opacity="0.97"/>
<polygon points="1104.5,772.8 1088.3,778.7 1088.3,768.1 1104.5,762.1" fill="#804c3a" opacity="0.94"/>
<polygon points="1088.3,778.7 1083.5,776.9 1083.5,766.3 1088.3,768.1" fill="#703c2a" opacity="0.94"/>
<polygon points="1099.6,760.3 1104.5,762.1 1088.3,768.1 1083.5,766.3" fill="#a87462" opacity="0.97"/>
<polygon points="1105.0,762.0 1088.1,768.3 1088.1,766.0 1105.0,759.7" fill="#4f2d23" opacity="0.94"/>
<polygon points="1088.1,768.3 1082.9,766.4 1082.9,764.1 1088.1,766.0" fill="#3f1d13" opacity="0.94"/>
<polygon points="1099.9,757.8 1105.0,759.7 1088.1,766.0 1082.9,764.1" fill="#77554b" opacity="0.97"/>
<polygon points="-32.5,782.8 -39.0,785.2 -39.0,783.9 -32.5,781.5" fill="#3b494e" opacity="0.94"/>
<polygon points="-39.0,785.2 -52.9,780.1 -52.9,778.8 -39.0,783.9" fill="#2b393e" opacity="0.94"/>
<polygon points="-46.4,776.4 -32.5,781.5 -39.0,783.9 -52.9,778.8" fill="#637176" opacity="0.97"/>
<polygon points="1112.2,777.9 1095.4,784.1 1095.4,783.2 1112.2,777.0" fill="#424846" opacity="0.94"/>
<polygon points="1095.4,784.1 1073.9,776.2 1073.9,775.3 1095.4,783.2" fill="#323836" opacity="0.94"/>
<polygon points="1090.7,769.1 1112.2,777.0 1095.4,783.2 1073.9,775.3" fill="#6a706e" opacity="0.97"/>
<polygon points="1008.9,774.7 992.5,780.8 992.5,767.9 1008.9,761.8" fill="#b58561" opacity="0.94"/>
<polygon points="992.5,780.8 987.2,778.9 987.2,765.9 992.5,767.9" fill="#a57551" opacity="0.94"/>
<polygon points="1003.7,759.8 1008.9,761.8 992.5,767.9 987.2,765.9" fill="#ddad89" opacity="0.97"/>
<polygon points="1009.4,761.7 992.2,768.1 992.2,765.6 1009.4,759.2" fill="#4f2d23" opacity="0.94"/>
<polygon points="992.2,768.1 986.7,766.0 986.7,763.6 992.2,765.6" fill="#3f1d13" opacity="0.94"/>
<polygon points="1004.0,757.2 1009.4,759.2 992.2,765.6 986.7,763.6" fill="#77554b" opacity="0.97"/>
<polygon points="1020.8,779.9 1003.7,786.2 1003.7,785.3 1020.8,779.0" fill="#424846" opacity="0.94"/>
<polygon points="1003.7,786.2 980.6,777.7 980.6,776.8 1003.7,785.3" fill="#323836" opacity="0.94"/>
<polygon points="997.7,770.4 1020.8,779.0 1003.7,785.3 980.6,776.8" fill="#6a706e" opacity="0.97"/>
<polygon points="1102.6,775.4 1086.5,781.3 1086.5,770.7 1102.6,764.8" fill="#b58561" opacity="0.94"/>
<polygon points="1086.5,781.3 1081.7,779.5 1081.7,768.9 1086.5,770.7" fill="#a57551" opacity="0.94"/>
<polygon points="1097.8,763.0 1102.6,764.8 1086.5,770.7 1081.7,768.9" fill="#ddad89" opacity="0.97"/>
<polygon points="1103.2,764.7 1086.2,770.9 1086.2,768.6 1103.2,762.4" fill="#4f2d23" opacity="0.94"/>
<polygon points="1086.2,770.9 1081.1,769.0 1081.1,766.7 1086.2,768.6" fill="#3f1d13" opacity="0.94"/>
<polygon points="1098.1,760.5 1103.2,762.4 1086.2,768.6 1081.1,766.7" fill="#77554b" opacity="0.97"/>
<polygon points="811.4,781.8 801.1,785.6 801.1,765.4 811.4,761.6" fill="#6d7f79" opacity="0.94"/>
<polygon points="801.1,785.6 778.6,777.3 778.6,757.1 801.1,765.4" fill="#5d6f69" opacity="0.94"/>
<polygon points="789.0,753.3 811.4,761.6 801.1,765.4 778.6,757.1" fill="#95a7a1" opacity="0.97"/>
<polygon points="1014.2,776.9 997.7,783.0 997.7,770.0 1014.2,763.9" fill="#ab6e4f" opacity="0.94"/>
<polygon points="997.7,783.0 992.5,781.1 992.5,768.1 997.7,770.0" fill="#9b5e3f" opacity="0.94"/>
<polygon points="1009.0,762.0 1014.2,763.9 997.7,770.0 992.5,768.1" fill="#d39677" opacity="0.97"/>
<polygon points="810.6,761.5 800.8,765.1 800.8,761.2 810.6,757.6" fill="#3e524d" opacity="0.94"/>
<polygon points="800.8,765.1 779.5,757.2 779.5,753.3 800.8,761.2" fill="#2e423d" opacity="0.94"/>
<polygon points="789.3,749.7 810.6,757.6 800.8,761.2 779.5,753.3" fill="#667a75" opacity="0.97"/>
<polygon points="1014.7,763.8 997.5,770.2 997.5,767.8 1014.7,761.4" fill="#4f2d23" opacity="0.94"/>
<polygon points="997.5,770.2 992.0,768.2 992.0,765.7 997.5,767.8" fill="#3f1d13" opacity="0.94"/>
<polygon points="1009.2,759.3 1014.7,761.4 997.5,767.8 992.0,765.7" fill="#77554b" opacity="0.97"/>
<polygon points="1100.8,778.0 1084.7,784.0 1084.7,773.4 1100.8,767.4" fill="#804c3a" opacity="0.94"/>
<polygon points="1084.7,784.0 1079.8,782.2 1079.8,771.6 1084.7,773.4" fill="#703c2a" opacity="0.94"/>
<polygon points="1096.0,765.6 1100.8,767.4 1084.7,773.4 1079.8,771.6" fill="#a87462" opacity="0.97"/>
<polygon points="1101.3,767.3 1084.4,773.6 1084.4,771.3 1101.3,765.0" fill="#4f2d23" opacity="0.94"/>
<polygon points="1084.4,773.6 1079.3,771.7 1079.3,769.4 1084.4,771.3" fill="#3f1d13" opacity="0.94"/>
<polygon points="1096.2,763.1 1101.3,765.0 1084.4,771.3 1079.3,769.4" fill="#77554b" opacity="0.97"/>
<polygon points="792.5,774.7 745.4,792.1 745.4,766.2 792.5,748.7" fill="#97a294" opacity="0.94"/>
<polygon points="745.4,792.1 735.4,788.4 735.4,762.4 745.4,766.2" fill="#879284" opacity="0.94"/>
<polygon points="782.5,745.0 792.5,748.7 745.4,766.2 735.4,762.4" fill="#bfcabc" opacity="0.97"/>
<polygon points="1019.5,779.1 1003.0,785.1 1003.0,772.2 1019.5,766.1" fill="#804c3a" opacity="0.94"/>
<polygon points="1003.0,785.1 997.8,783.2 997.8,770.3 1003.0,772.2" fill="#703c2a" opacity="0.94"/>
<polygon points="1014.2,764.2 1019.5,766.1 1003.0,772.2 997.8,770.3" fill="#a87462" opacity="0.97"/>
<polygon points="791.1,749.1 746.4,765.6 746.4,762.2 791.1,745.6" fill="#3e524d" opacity="0.94"/>
<polygon points="746.4,765.6 736.8,762.1 736.8,758.7 746.4,762.2" fill="#2e423d" opacity="0.94"/>
<polygon points="781.5,742.1 791.1,745.6 746.4,762.2 736.8,758.7" fill="#667a75" opacity="0.97"/>
<polygon points="1020.0,766.0 1002.7,772.4 1002.7,769.9 1020.0,763.5" fill="#4f2d23" opacity="0.94"/>
<polygon points="1002.7,772.4 997.2,770.4 997.2,767.9 1002.7,769.9" fill="#3f1d13" opacity="0.94"/>
<polygon points="1014.5,761.5 1020.0,763.5 1002.7,769.9 997.2,767.9" fill="#77554b" opacity="0.97"/>
<polygon points="5.9,781.2 -39.1,797.9 -39.1,796.6 5.9,779.9" fill="#344248" opacity="0.94"/>
<polygon points="-39.1,797.9 -47.3,794.9 -47.3,793.6 -39.1,796.6" fill="#243238" opacity="0.94"/>
<polygon points="-2.2,776.9 5.9,779.9 -39.1,796.6 -47.3,793.6" fill="#5c6a70" opacity="0.97"/>
<polygon points="-4.5,790.2 -9.9,792.2 -9.9,757.8 -4.5,755.8" fill="#795636" opacity="0.94"/>
<polygon points="-9.9,792.2 -25.1,786.6 -25.1,752.2 -9.9,757.8" fill="#694626" opacity="0.94"/>
<polygon points="-19.7,750.2 -4.5,755.8 -9.9,757.8 -25.1,752.2" fill="#a17e5e" opacity="0.97"/>
<polygon points="823.2,785.9 774.3,804.0 774.3,802.9 823.2,784.8" fill="#424846" opacity="0.94"/>
<polygon points="774.3,804.0 734.1,789.1 734.1,788.0 774.3,802.9" fill="#323836" opacity="0.94"/>
<polygon points="783.0,769.9 823.2,784.8 774.3,802.9 734.1,788.0" fill="#6a706e" opacity="0.97"/>
<polygon points="1064.4,783.2 1049.2,788.8 1049.2,779.8 1064.4,774.2" fill="#b58561" opacity="0.94"/>
<polygon points="1049.2,788.8 1044.9,787.2 1044.9,778.2 1049.2,779.8" fill="#a57551" opacity="0.94"/>
<polygon points="1060.1,772.6 1064.4,774.2 1049.2,779.8 1044.9,778.2" fill="#ddad89" opacity="0.97"/>
<polygon points="1064.9,774.1 1049.0,780.0 1049.0,777.9 1064.9,772.0" fill="#4f2d23" opacity="0.94"/>
<polygon points="1049.0,780.0 1044.4,778.3 1044.4,776.2 1049.0,777.9" fill="#3f1d13" opacity="0.94"/>
<polygon points="1060.3,770.3 1064.9,772.0 1049.0,777.9 1044.4,776.2" fill="#77554b" opacity="0.97"/>
<polygon points="68.6,809.1 66.7,809.8 66.7,800.8 68.6,800.1" fill="#474f4d" opacity="0.94"/>
<polygon points="66.7,809.8 18.3,791.8 18.3,782.8 66.7,800.8" fill="#373f3d" opacity="0.94"/>
<polygon points="20.1,782.1 68.6,800.1 66.7,800.8 18.3,782.8" fill="#6f7775" opacity="0.97"/>
<polygon points="1068.1,785.2 1052.9,790.8 1052.9,781.8 1068.1,776.2" fill="#b58561" opacity="0.94"/>
<polygon points="1052.9,790.8 1048.6,789.2 1048.6,780.2 1052.9,781.8" fill="#a57551" opacity="0.94"/>
<polygon points="1063.7,774.6 1068.1,776.2 1052.9,781.8 1048.6,780.2" fill="#ddad89" opacity="0.97"/>
<polygon points="1068.5,776.1 1052.6,782.0 1052.6,779.9 1068.5,774.0" fill="#4f2d23" opacity="0.94"/>
<polygon points="1052.6,782.0 1048.1,780.3 1048.1,778.2 1052.6,779.9" fill="#3f1d13" opacity="0.94"/>
<polygon points="1064.0,772.3 1068.5,774.0 1052.6,779.9 1048.1,778.2" fill="#77554b" opacity="0.97"/>
<polygon points="1077.6,789.7 1061.9,795.5 1061.9,794.7 1077.6,788.9" fill="#424846" opacity="0.94"/>
<polygon points="1061.9,795.5 1042.7,788.4 1042.7,787.6 1061.9,794.7" fill="#323836" opacity="0.94"/>
<polygon points="1058.4,781.8 1077.6,788.9 1061.9,794.7 1042.7,787.6" fill="#6a706e" opacity="0.97"/>
<polygon points="979.6,786.2 961.5,792.9 961.5,776.5 979.6,769.8" fill="#b58561" opacity="0.94"/>
<polygon points="961.5,792.9 955.8,790.7 955.8,774.4 961.5,776.5" fill="#a57551" opacity="0.94"/>
<polygon points="973.8,767.7 979.6,769.8 961.5,776.5 955.8,774.4" fill="#ddad89" opacity="0.97"/>
<polygon points="980.2,769.7 961.2,776.8 961.2,774.0 980.2,767.0" fill="#4f2d23" opacity="0.94"/>
<polygon points="961.2,776.8 955.2,774.5 955.2,771.8 961.2,774.0" fill="#3f1d13" opacity="0.94"/>
<polygon points="974.1,764.8 980.2,767.0 961.2,774.0 955.2,771.8" fill="#77554b" opacity="0.97"/>
<polygon points="1071.7,787.2 1056.6,792.8 1056.6,783.8 1071.7,778.2" fill="#ab6e4f" opacity="0.94"/>
<polygon points="1056.6,792.8 1052.2,791.2 1052.2,782.2 1056.6,783.8" fill="#9b5e3f" opacity="0.94"/>
<polygon points="1067.4,776.6 1071.7,778.2 1056.6,783.8 1052.2,782.2" fill="#d39677" opacity="0.97"/>
<polygon points="1072.2,778.1 1056.3,784.0 1056.3,781.9 1072.2,776.0" fill="#4f2d23" opacity="0.94"/>
<polygon points="1056.3,784.0 1051.8,782.3 1051.8,780.2 1056.3,781.9" fill="#3f1d13" opacity="0.94"/>
<polygon points="1067.7,774.3 1072.2,776.0 1056.3,781.9 1051.8,780.2" fill="#77554b" opacity="0.97"/>
<polygon points="821.9,784.4 774.8,801.8 774.8,775.9 821.9,758.4" fill="#7c8e89" opacity="0.94"/>
<polygon points="774.8,801.8 764.8,798.1 764.8,772.1 774.8,775.9" fill="#6c7e79" opacity="0.94"/>
<polygon points="811.9,754.7 821.9,758.4 774.8,775.9 764.8,772.1" fill="#a4b6b1" opacity="0.97"/>
<polygon points="820.5,758.8 775.8,775.3 775.8,771.9 820.5,755.3" fill="#3e524d" opacity="0.94"/>
<polygon points="775.8,775.3 766.2,771.8 766.2,768.4 775.8,771.9" fill="#2e423d" opacity="0.94"/>
<polygon points="810.9,751.8 820.5,755.3 775.8,771.9 766.2,768.4" fill="#667a75" opacity="0.97"/>
<polygon points="976.2,789.1 958.1,795.8 958.1,779.5 976.2,772.8" fill="#975d43" opacity="0.94"/>
<polygon points="958.1,795.8 952.4,793.7 952.4,777.4 958.1,779.5" fill="#874d33" opacity="0.94"/>
<polygon points="970.5,770.7 976.2,772.8 958.1,779.5 952.4,777.4" fill="#bf856b" opacity="0.97"/>
<polygon points="1075.4,789.2 1060.2,794.8 1060.2,785.8 1075.4,780.2" fill="#804c3a" opacity="0.94"/>
<polygon points="1060.2,794.8 1055.9,793.2 1055.9,784.2 1060.2,785.8" fill="#703c2a" opacity="0.94"/>
<polygon points="1071.1,778.6 1075.4,780.2 1060.2,785.8 1055.9,784.2" fill="#a87462" opacity="0.97"/>
<polygon points="1075.9,780.1 1060.0,786.0 1060.0,783.9 1075.9,778.0" fill="#4f2d23" opacity="0.94"/>
<polygon points="1060.0,786.0 1055.4,784.3 1055.4,782.2 1060.0,783.9" fill="#3f1d13" opacity="0.94"/>
<polygon points="1071.3,776.3 1075.9,778.0 1060.0,783.9 1055.4,782.2" fill="#77554b" opacity="0.97"/>
<polygon points="976.8,772.7 957.8,779.7 957.8,777.0 976.8,770.0" fill="#4f2d23" opacity="0.94"/>
<polygon points="957.8,779.7 951.8,777.5 951.8,774.8 957.8,777.0" fill="#3f1d13" opacity="0.94"/>
<polygon points="970.8,767.7 976.8,770.0 957.8,777.0 951.8,774.8" fill="#77554b" opacity="0.97"/>
<polygon points="778.6,795.4 768.3,799.3 768.3,779.0 778.6,775.2" fill="#6d7f79" opacity="0.94"/>
<polygon points="768.3,799.3 745.9,791.0 745.9,770.7 768.3,779.0" fill="#5d6f69" opacity="0.94"/>
<polygon points="756.2,766.9 778.6,775.2 768.3,779.0 745.9,770.7" fill="#95a7a1" opacity="0.97"/>
<polygon points="984.7,795.0 965.9,801.9 965.9,801.0 984.7,794.1" fill="#424846" opacity="0.94"/>
<polygon points="965.9,801.9 940.5,792.6 940.5,791.6 965.9,801.0" fill="#323836" opacity="0.94"/>
<polygon points="959.3,784.7 984.7,794.1 965.9,801.0 940.5,791.6" fill="#6a706e" opacity="0.97"/>
<polygon points="777.8,775.1 768.0,778.7 768.0,774.9 777.8,771.2" fill="#3e524d" opacity="0.94"/>
<polygon points="768.0,778.7 746.7,770.8 746.7,767.0 768.0,774.9" fill="#2e423d" opacity="0.94"/>
<polygon points="756.5,763.3 777.8,771.2 768.0,774.9 746.7,767.0" fill="#667a75" opacity="0.97"/>
<polygon points="972.8,792.0 954.8,798.7 954.8,782.4 972.8,775.7" fill="#975d43" opacity="0.94"/>
<polygon points="954.8,798.7 949.0,796.6 949.0,780.3 954.8,782.4" fill="#874d33" opacity="0.94"/>
<polygon points="967.1,773.6 972.8,775.7 954.8,782.4 949.0,780.3" fill="#bf856b" opacity="0.97"/>
<polygon points="973.4,775.6 954.5,782.6 954.5,779.9 973.4,772.9" fill="#4f2d23" opacity="0.94"/>
<polygon points="954.5,782.6 948.4,780.4 948.4,777.7 954.5,779.9" fill="#3f1d13" opacity="0.94"/>
<polygon points="967.4,770.7 973.4,772.9 954.5,779.9 948.4,777.7" fill="#77554b" opacity="0.97"/>
<polygon points="32.4,803.0 25.9,805.4 25.9,804.1 32.4,801.7" fill="#3b494e" opacity="0.94"/>
<polygon points="25.9,805.4 11.7,800.1 11.7,798.8 25.9,804.1" fill="#2b393e" opacity="0.94"/>
<polygon points="18.1,796.4 32.4,801.7 25.9,804.1 11.7,798.8" fill="#637176" opacity="0.97"/>
<polygon points="969.5,795.0 951.4,801.7 951.4,785.4 969.5,778.7" fill="#804c3a" opacity="0.94"/>
<polygon points="951.4,801.7 945.7,799.6 945.7,783.2 951.4,785.4" fill="#703c2a" opacity="0.94"/>
<polygon points="963.8,776.5 969.5,778.7 951.4,785.4 945.7,783.2" fill="#a87462" opacity="0.97"/>
<polygon points="970.1,778.6 951.1,785.6 951.1,782.9 970.1,775.8" fill="#4f2d23" opacity="0.94"/>
<polygon points="951.1,785.6 945.1,783.4 945.1,780.6 951.1,782.9" fill="#3f1d13" opacity="0.94"/>
<polygon points="964.1,773.6 970.1,775.8 951.1,782.9 945.1,780.6" fill="#77554b" opacity="0.97"/>
<polygon points="1185.0,800.1 1175.4,803.7 1175.4,802.9 1185.0,799.4" fill="#424846" opacity="0.94"/>
<polygon points="1175.4,803.7 1164.8,799.7 1164.8,799.0 1175.4,802.9" fill="#323836" opacity="0.94"/>
<polygon points="1174.4,795.4 1185.0,799.4 1175.4,802.9 1164.8,799.0" fill="#6a706e" opacity="0.97"/>
<polygon points="1184.3,799.2 1175.1,802.6 1175.1,794.3 1184.3,790.9" fill="#a79d8b" opacity="0.94"/>
<polygon points="1175.1,802.6 1165.5,799.1 1165.5,790.7 1175.1,794.3" fill="#978d7b" opacity="0.94"/>
<polygon points="1174.7,787.3 1184.3,790.9 1175.1,794.3 1165.5,790.7" fill="#cfc5b3" opacity="0.97"/>
<polygon points="1184.8,790.9 1175.1,794.4 1175.1,789.9 1184.8,786.3" fill="#4d5049" opacity="0.94"/>
<polygon points="1175.1,794.4 1165.0,790.7 1165.0,786.1 1175.1,789.9" fill="#3d4039" opacity="0.94"/>
<polygon points="1174.7,782.6 1184.8,786.3 1175.1,789.9 1165.0,786.1" fill="#757871" opacity="0.97"/>
<polygon points="121.8,824.5 119.9,825.2 119.9,816.0 121.8,815.3" fill="#474f4d" opacity="0.94"/>
<polygon points="119.9,825.2 71.5,807.3 71.5,798.0 119.9,816.0" fill="#373f3d" opacity="0.94"/>
<polygon points="73.3,797.3 121.8,815.3 119.9,816.0 71.5,798.0" fill="#6f7775" opacity="0.97"/>
<polygon points="1101.8,799.7 1087.0,805.2 1087.0,793.8 1101.8,788.3" fill="#804c3a" opacity="0.94"/>
<polygon points="1087.0,805.2 1081.3,803.1 1081.3,791.7 1087.0,793.8" fill="#703c2a" opacity="0.94"/>
<polygon points="1096.1,786.2 1101.8,788.3 1087.0,793.8 1081.3,791.7" fill="#a87462" opacity="0.97"/>
<polygon points="1102.3,788.3 1086.8,794.0 1086.8,791.3 1102.3,785.5" fill="#4f2d23" opacity="0.94"/>
<polygon points="1086.8,794.0 1080.8,791.8 1080.8,789.1 1086.8,791.3" fill="#3f1d13" opacity="0.94"/>
<polygon points="1096.3,783.3 1102.3,785.5 1086.8,791.3 1080.8,789.1" fill="#77554b" opacity="0.97"/>
<polygon points="75.5,801.2 25.7,819.6 25.7,818.3 75.5,799.9" fill="#344248" opacity="0.94"/>
<polygon points="25.7,819.6 17.3,816.5 17.3,815.2 25.7,818.3" fill="#243238" opacity="0.94"/>
<polygon points="67.1,796.8 75.5,799.9 25.7,818.3 17.3,815.2" fill="#5c6a70" opacity="0.97"/>
<polygon points="1099.4,802.8 1084.6,808.3 1084.6,796.9 1099.4,791.4" fill="#975d43" opacity="0.94"/>
<polygon points="1084.6,808.3 1078.9,806.1 1078.9,794.8 1084.6,796.9" fill="#874d33" opacity="0.94"/>
<polygon points="1093.7,789.3 1099.4,791.4 1084.6,796.9 1078.9,794.8" fill="#bf856b" opacity="0.97"/>
<polygon points="1099.9,791.3 1084.4,797.1 1084.4,794.4 1099.9,788.6" fill="#4f2d23" opacity="0.94"/>
<polygon points="1084.4,797.1 1078.4,794.8 1078.4,792.1 1084.4,794.4" fill="#3f1d13" opacity="0.94"/>
<polygon points="1093.9,786.4 1099.9,788.6 1084.4,794.4 1078.4,792.1" fill="#77554b" opacity="0.97"/>
<polygon points="1108.3,808.7 1092.9,814.4 1092.9,813.5 1108.3,807.8" fill="#424846" opacity="0.94"/>
<polygon points="1092.9,814.4 1067.7,805.0 1067.7,804.2 1092.9,813.5" fill="#323836" opacity="0.94"/>
<polygon points="1083.1,798.5 1108.3,807.8 1092.9,813.5 1067.7,804.2" fill="#6a706e" opacity="0.97"/>
<polygon points="1097.1,805.8 1082.3,811.3 1082.3,799.9 1097.1,794.5" fill="#b58561" opacity="0.94"/>
<polygon points="1082.3,811.3 1076.6,809.2 1076.6,797.8 1082.3,799.9" fill="#a57551" opacity="0.94"/>
<polygon points="1091.4,792.3 1097.1,794.5 1082.3,799.9 1076.6,797.8" fill="#ddad89" opacity="0.97"/>
<polygon points="1097.6,794.4 1082.1,800.1 1082.1,797.4 1097.6,791.7" fill="#4f2d23" opacity="0.94"/>
<polygon points="1082.1,800.1 1076.1,797.9 1076.1,795.2 1082.1,797.4" fill="#3f1d13" opacity="0.94"/>
<polygon points="1091.6,789.4 1097.6,791.7 1082.1,797.4 1076.1,795.2" fill="#77554b" opacity="0.97"/>
<polygon points="981.5,807.3 964.1,813.8 964.1,803.9 981.5,797.5" fill="#ab6e4f" opacity="0.94"/>
<polygon points="964.1,813.8 959.6,812.1 959.6,802.3 964.1,803.9" fill="#9b5e3f" opacity="0.94"/>
<polygon points="977.0,795.8 981.5,797.5 964.1,803.9 959.6,802.3" fill="#d39677" opacity="0.97"/>
<polygon points="982.0,797.4 963.8,804.1 963.8,802.0 982.0,795.3" fill="#4f2d23" opacity="0.94"/>
<polygon points="963.8,804.1 959.1,802.4 959.1,800.3 963.8,802.0" fill="#3f1d13" opacity="0.94"/>
<polygon points="977.3,793.5 982.0,795.3 963.8,802.0 959.1,800.3" fill="#77554b" opacity="0.97"/>
<polygon points="1094.7,808.9 1080.0,814.4 1080.0,803.0 1094.7,797.5" fill="#975d43" opacity="0.94"/>
<polygon points="1080.0,814.4 1074.3,812.3 1074.3,800.9 1080.0,803.0" fill="#874d33" opacity="0.94"/>
<polygon points="1089.0,795.4 1094.7,797.5 1080.0,803.0 1074.3,800.9" fill="#bf856b" opacity="0.97"/>
<polygon points="1095.3,797.4 1079.7,803.2 1079.7,800.5 1095.3,794.7" fill="#4f2d23" opacity="0.94"/>
<polygon points="1079.7,803.2 1073.8,801.0 1073.8,798.2 1079.7,800.5" fill="#3f1d13" opacity="0.94"/>
<polygon points="1089.3,792.5 1095.3,794.7 1079.7,800.5 1073.8,798.2" fill="#77554b" opacity="0.97"/>
<polygon points="978.8,809.6 961.4,816.1 961.4,806.2 978.8,799.8" fill="#b58561" opacity="0.94"/>
<polygon points="961.4,816.1 956.9,814.4 956.9,804.6 961.4,806.2" fill="#a57551" opacity="0.94"/>
<polygon points="974.3,798.1 978.8,799.8 961.4,806.2 956.9,804.6" fill="#ddad89" opacity="0.97"/>
<polygon points="979.3,799.7 961.1,806.4 961.1,804.3 979.3,797.5" fill="#4f2d23" opacity="0.94"/>
<polygon points="961.1,806.4 956.4,804.7 956.4,802.6 961.1,804.3" fill="#3f1d13" opacity="0.94"/>
<polygon points="974.6,795.8 979.3,797.5 961.1,804.3 956.4,802.6" fill="#77554b" opacity="0.97"/>
<polygon points="985.4,814.4 967.4,821.0 967.4,820.2 985.4,813.5" fill="#424846" opacity="0.94"/>
<polygon points="967.4,821.0 947.6,813.7 947.6,812.8 967.4,820.2" fill="#323836" opacity="0.94"/>
<polygon points="965.6,806.1 985.4,813.5 967.4,820.2 947.6,812.8" fill="#6a706e" opacity="0.97"/>
<polygon points="976.1,811.9 958.7,818.3 958.7,808.5 976.1,802.1" fill="#ab6e4f" opacity="0.94"/>
<polygon points="958.7,818.3 954.3,816.7 954.3,806.8 958.7,808.5" fill="#9b5e3f" opacity="0.94"/>
<polygon points="971.6,800.4 976.1,802.1 958.7,808.5 954.3,806.8" fill="#d39677" opacity="0.97"/>
<polygon points="976.6,802.0 958.4,808.7 958.4,806.6 976.6,799.8" fill="#4f2d23" opacity="0.94"/>
<polygon points="958.4,808.7 953.7,807.0 953.7,804.8 958.4,806.6" fill="#3f1d13" opacity="0.94"/>
<polygon points="971.9,798.1 976.6,799.8 958.4,806.6 953.7,804.8" fill="#77554b" opacity="0.97"/>
<polygon points="973.4,814.2 956.0,820.6 956.0,810.8 973.4,804.4" fill="#804c3a" opacity="0.94"/>
<polygon points="956.0,820.6 951.6,819.0 951.6,809.1 956.0,810.8" fill="#703c2a" opacity="0.94"/>
<polygon points="968.9,802.7 973.4,804.4 956.0,810.8 951.6,809.1" fill="#a87462" opacity="0.97"/>
<polygon points="175.1,839.8 173.3,840.5 173.3,831.0 175.1,830.3" fill="#474f4d" opacity="0.94"/>
<polygon points="173.3,840.5 124.9,822.6 124.9,813.0 173.3,831.0" fill="#373f3d" opacity="0.94"/>
<polygon points="126.7,812.4 175.1,830.3 173.3,831.0 124.9,813.0" fill="#6f7775" opacity="0.97"/>
<polygon points="973.9,804.2 955.7,811.0 955.7,808.9 973.9,802.1" fill="#4f2d23" opacity="0.94"/>
<polygon points="955.7,811.0 951.0,809.3 951.0,807.1 955.7,808.9" fill="#3f1d13" opacity="0.94"/>
<polygon points="969.2,800.4 973.9,802.1 955.7,808.9 951.0,807.1" fill="#77554b" opacity="0.97"/>
<polygon points="467.7,832.2 434.8,844.3 434.8,843.0 467.7,830.8" fill="#424846" opacity="0.94"/>
<polygon points="434.8,844.3 369.6,820.2 369.6,818.8 434.8,843.0" fill="#323836" opacity="0.94"/>
<polygon points="402.5,806.6 467.7,830.8 434.8,843.0 369.6,818.8" fill="#6a706e" opacity="0.97"/>
<polygon points="465.8,830.5 434.2,842.3 434.2,822.3 465.8,810.6" fill="#4e6068" opacity="0.94"/>
<polygon points="434.2,842.3 371.5,819.0 371.5,799.0 434.2,822.3" fill="#3e5058" opacity="0.94"/>
<polygon points="403.1,787.3 465.8,810.6 434.2,822.3 371.5,799.0" fill="#768890" opacity="0.97"/>
<polygon points="466.3,810.6 434.4,822.4 434.4,816.9 466.3,805.0" fill="#23353d" opacity="0.94"/>
<polygon points="434.4,822.4 371.0,799.0 371.0,793.4 434.4,816.9" fill="#13252d" opacity="0.94"/>
<polygon points="403.0,781.6 466.3,805.0 434.4,816.9 371.0,793.4" fill="#4b5d65" opacity="0.97"/>
<polygon points="1049.5,822.5 1024.6,831.7 1024.6,816.6 1049.5,807.4" fill="#804c3a" opacity="0.94"/>
<polygon points="1024.6,831.7 1017.0,828.9 1017.0,813.7 1024.6,816.6" fill="#703c2a" opacity="0.94"/>
<polygon points="1041.8,804.5 1049.5,807.4 1024.6,816.6 1017.0,813.7" fill="#a87462" opacity="0.97"/>
<polygon points="1050.3,807.2 1024.2,816.9 1024.2,813.2 1050.3,803.6" fill="#4f2d23" opacity="0.94"/>
<polygon points="1024.2,816.9 1016.2,813.9 1016.2,810.3 1024.2,813.2" fill="#3f1d13" opacity="0.94"/>
<polygon points="1042.3,800.6 1050.3,803.6 1024.2,813.2 1016.2,810.3" fill="#77554b" opacity="0.97"/>
<polygon points="1065.2,830.0 1039.4,839.6 1039.4,838.7 1065.2,829.1" fill="#424846" opacity="0.94"/>
<polygon points="1039.4,839.6 1014.1,830.2 1014.1,829.3 1039.4,838.7" fill="#323836" opacity="0.94"/>
<polygon points="1039.9,819.7 1065.2,829.1 1039.4,838.7 1014.1,829.3" fill="#6a706e" opacity="0.97"/>
<polygon points="1055.9,826.0 1031.1,835.2 1031.1,820.1 1055.9,810.9" fill="#975d43" opacity="0.94"/>
<polygon points="1031.1,835.2 1023.5,832.4 1023.5,817.2 1031.1,820.1" fill="#874d33" opacity="0.94"/>
<polygon points="1048.3,808.1 1055.9,810.9 1031.1,820.1 1023.5,817.2" fill="#bf856b" opacity="0.97"/>
<polygon points="1056.7,810.7 1030.6,820.4 1030.6,816.8 1056.7,807.1" fill="#4f2d23" opacity="0.94"/>
<polygon points="1030.6,820.4 1022.6,817.4 1022.6,813.8 1030.6,816.8" fill="#3f1d13" opacity="0.94"/>
<polygon points="1048.7,804.1 1056.7,807.1 1030.6,816.8 1022.6,813.8" fill="#77554b" opacity="0.97"/>
<polygon points="229.5,854.7 227.7,855.4 227.7,845.4 229.5,844.8" fill="#474f4d" opacity="0.94"/>
<polygon points="227.7,855.4 179.3,837.4 179.3,827.5 227.7,845.4" fill="#373f3d" opacity="0.94"/>
<polygon points="181.1,826.8 229.5,844.8 227.7,845.4 179.3,827.5" fill="#6f7775" opacity="0.97"/>
<polygon points="1129.3,832.7 1119.2,836.5 1119.2,835.7 1129.3,832.0" fill="#424846" opacity="0.94"/>
<polygon points="1119.2,836.5 1105.0,831.2 1105.0,830.4 1119.2,835.7" fill="#323836" opacity="0.94"/>
<polygon points="1115.1,826.7 1129.3,832.0 1119.2,835.7 1105.0,830.4" fill="#6a706e" opacity="0.97"/>
<polygon points="1128.5,831.8 1118.8,835.4 1118.8,826.4 1128.5,822.8" fill="#b4a993" opacity="0.94"/>
<polygon points="1118.8,835.4 1105.8,830.6 1105.8,821.6 1118.8,826.4" fill="#a49983" opacity="0.94"/>
<polygon points="1115.6,818.0 1128.5,822.8 1118.8,826.4 1105.8,821.6" fill="#dcd1bb" opacity="0.97"/>
<polygon points="1129.0,822.8 1118.8,826.6 1118.8,820.5 1129.0,816.8" fill="#4d5049" opacity="0.94"/>
<polygon points="1118.8,826.6 1105.3,821.5 1105.3,815.5 1118.8,820.5" fill="#3d4039" opacity="0.94"/>
<polygon points="1115.5,811.8 1129.0,816.8 1118.8,820.5 1105.3,815.5" fill="#757871" opacity="0.97"/>
<polygon points="1175.0,830.4 1159.5,836.1 1159.5,828.4 1175.0,822.6" fill="#818d86" opacity="0.94"/>
<polygon points="1159.5,836.1 1154.3,834.2 1154.3,826.5 1159.5,828.4" fill="#717d76" opacity="0.94"/>
<polygon points="1169.8,820.7 1175.0,822.6 1159.5,828.4 1154.3,826.5" fill="#a9b5ae" opacity="0.97"/>
<polygon points="1175.5,822.6 1159.3,828.6 1159.3,826.1 1175.5,820.1" fill="#4d5049" opacity="0.94"/>
<polygon points="1159.3,828.6 1153.8,826.6 1153.8,824.1 1159.3,826.1" fill="#3d4039" opacity="0.94"/>
<polygon points="1170.1,818.1 1175.5,820.1 1159.3,826.1 1153.8,824.1" fill="#757871" opacity="0.97"/>
<polygon points="1062.3,829.5 1037.5,838.7 1037.5,823.6 1062.3,814.4" fill="#b58561" opacity="0.94"/>
<polygon points="1037.5,838.7 1029.9,835.9 1029.9,820.8 1037.5,823.6" fill="#a57551" opacity="0.94"/>
<polygon points="1054.7,811.6 1062.3,814.4 1037.5,823.6 1029.9,820.8" fill="#ddad89" opacity="0.97"/>
<polygon points="1063.1,814.2 1037.1,823.9 1037.1,820.3 1063.1,810.6" fill="#4f2d23" opacity="0.94"/>
<polygon points="1037.1,823.9 1029.1,820.9 1029.1,817.3 1037.1,820.3" fill="#3f1d13" opacity="0.94"/>
<polygon points="1055.1,807.7 1063.1,810.6 1037.1,820.3 1029.1,817.3" fill="#77554b" opacity="0.97"/>
<polygon points="1185.7,835.6 1169.6,841.6 1169.6,840.8 1185.7,834.9" fill="#424846" opacity="0.94"/>
<polygon points="1169.6,841.6 1152.4,835.2 1152.4,834.5 1169.6,840.8" fill="#323836" opacity="0.94"/>
<polygon points="1168.5,828.5 1185.7,834.9 1169.6,840.8 1152.4,834.5" fill="#6a706e" opacity="0.97"/>
<polygon points="1179.4,832.7 1163.9,838.5 1163.9,830.8 1179.4,825.0" fill="#90988f" opacity="0.94"/>
<polygon points="1163.9,838.5 1158.8,836.6 1158.8,828.8 1163.9,830.8" fill="#80887f" opacity="0.94"/>
<polygon points="1174.2,823.1 1179.4,825.0 1163.9,830.8 1158.8,828.8" fill="#b8c0b7" opacity="0.97"/>
<polygon points="1179.9,824.9 1163.7,831.0 1163.7,828.5 1179.9,822.5" fill="#4d5049" opacity="0.94"/>
<polygon points="1163.7,831.0 1158.2,828.9 1158.2,826.5 1163.7,828.5" fill="#3d4039" opacity="0.94"/>
<polygon points="1174.5,820.5 1179.9,822.5 1163.7,828.5 1158.2,826.5" fill="#757871" opacity="0.97"/>
<polygon points="1006.8,834.1 987.4,841.3 987.4,826.3 1006.8,819.1" fill="#804c3a" opacity="0.94"/>
<polygon points="987.4,841.3 980.6,838.8 980.6,823.8 987.4,826.3" fill="#703c2a" opacity="0.94"/>
<polygon points="1000.0,816.6 1006.8,819.1 987.4,826.3 980.6,823.8" fill="#a87462" opacity="0.97"/>
<polygon points="1007.5,819.0 987.1,826.5 987.1,823.3 1007.5,815.8" fill="#4f2d23" opacity="0.94"/>
<polygon points="987.1,826.5 980.0,823.9 980.0,820.7 987.1,823.3" fill="#3f1d13" opacity="0.94"/>
<polygon points="1000.3,813.1 1007.5,815.8 987.1,823.3 980.0,820.7" fill="#77554b" opacity="0.97"/>
<polygon points="1183.8,835.1 1168.4,840.9 1168.4,833.1 1183.8,827.4" fill="#90988f" opacity="0.94"/>
<polygon points="1168.4,840.9 1163.2,838.9 1163.2,831.2 1168.4,833.1" fill="#80887f" opacity="0.94"/>
<polygon points="1178.7,825.5 1183.8,827.4 1168.4,833.1 1163.2,831.2" fill="#b8c0b7" opacity="0.97"/>
<polygon points="1184.3,827.3 1168.1,833.3 1168.1,830.9 1184.3,824.9" fill="#4d5049" opacity="0.94"/>
<polygon points="1168.1,833.3 1162.7,831.3 1162.7,828.9 1168.1,830.9" fill="#3d4039" opacity="0.94"/>
<polygon points="1178.9,822.8 1184.3,824.9 1168.1,830.9 1162.7,828.9" fill="#757871" opacity="0.97"/>
<polygon points="1020.8,840.8 1000.6,848.3 1000.6,847.5 1020.8,840.0" fill="#424846" opacity="0.94"/>
<polygon points="1000.6,848.3 978.1,840.0 978.1,839.1 1000.6,847.5" fill="#323836" opacity="0.94"/>
<polygon points="998.3,831.6 1020.8,840.0 1000.6,847.5 978.1,839.1" fill="#6a706e" opacity="0.97"/>
<polygon points="1012.5,837.2 993.1,844.4 993.1,829.4 1012.5,822.2" fill="#b58561" opacity="0.94"/>
<polygon points="993.1,844.4 986.3,841.9 986.3,826.9 993.1,829.4" fill="#a57551" opacity="0.94"/>
<polygon points="1005.7,819.7 1012.5,822.2 993.1,829.4 986.3,826.9" fill="#ddad89" opacity="0.97"/>
<polygon points="1139.4,837.5 1124.7,842.9 1124.7,832.1 1139.4,826.7" fill="#90988f" opacity="0.94"/>
<polygon points="1124.7,842.9 1119.2,840.9 1119.2,830.1 1124.7,832.1" fill="#80887f" opacity="0.94"/>
<polygon points="1133.9,824.6 1139.4,826.7 1124.7,832.1 1119.2,830.1" fill="#b8c0b7" opacity="0.97"/>
<polygon points="1139.9,826.6 1124.5,832.3 1124.5,829.7 1139.9,824.0" fill="#4d5049" opacity="0.94"/>
<polygon points="1124.5,832.3 1118.7,830.1 1118.7,827.5 1124.5,829.7" fill="#3d4039" opacity="0.94"/>
<polygon points="1134.1,821.8 1139.9,824.0 1124.5,829.7 1118.7,827.5" fill="#757871" opacity="0.97"/>
<polygon points="1013.2,822.1 992.8,829.7 992.8,826.4 1013.2,818.9" fill="#4f2d23" opacity="0.94"/>
<polygon points="992.8,829.7 985.7,827.0 985.7,823.8 992.8,826.4" fill="#3f1d13" opacity="0.94"/>
<polygon points="1006.0,816.3 1013.2,818.9 992.8,826.4 985.7,823.8" fill="#77554b" opacity="0.97"/>
<polygon points="723.9,847.2 675.6,865.1 675.6,863.9 723.9,846.0" fill="#424846" opacity="0.94"/>
<polygon points="675.6,865.1 604.9,838.9 604.9,837.7 675.6,863.9" fill="#323836" opacity="0.94"/>
<polygon points="653.2,819.8 723.9,846.0 675.6,863.9 604.9,837.7" fill="#6a706e" opacity="0.97"/>
<polygon points="721.6,845.8 675.2,863.0 675.2,835.5 721.6,818.3" fill="#3a484e" opacity="0.94"/>
<polygon points="675.2,863.0 607.2,837.8 607.2,810.3 675.2,835.5" fill="#2a383e" opacity="0.94"/>
<polygon points="653.6,793.1 721.6,818.3 675.2,835.5 607.2,810.3" fill="#627076" opacity="0.97"/>
<polygon points="722.2,818.3 675.3,835.7 675.3,831.0 722.2,813.6" fill="#172328" opacity="0.94"/>
<polygon points="675.3,835.7 606.6,810.3 606.6,805.5 675.3,831.0" fill="#071318" opacity="0.94"/>
<polygon points="653.5,788.2 722.2,813.6 675.3,831.0 606.6,805.5" fill="#3f4b50" opacity="0.97"/>
<polygon points="1144.1,840.0 1129.4,845.5 1129.4,834.6 1144.1,829.2" fill="#90988f" opacity="0.94"/>
<polygon points="1129.4,845.5 1123.9,843.4 1123.9,832.6 1129.4,834.6" fill="#80887f" opacity="0.94"/>
<polygon points="1138.6,827.2 1144.1,829.2 1129.4,834.6 1123.9,832.6" fill="#b8c0b7" opacity="0.97"/>
<polygon points="1144.6,829.1 1129.2,834.8 1129.2,832.2 1144.6,826.5" fill="#4d5049" opacity="0.94"/>
<polygon points="1129.2,834.8 1123.4,832.7 1123.4,830.1 1129.2,832.2" fill="#3d4039" opacity="0.94"/>
<polygon points="1138.8,824.3 1144.6,826.5 1129.2,832.2 1123.4,830.1" fill="#757871" opacity="0.97"/>
<polygon points="194.3,849.2 187.8,851.6 187.8,850.3 194.3,847.9" fill="#3b494e" opacity="0.94"/>
<polygon points="187.8,851.6 172.9,846.1 172.9,844.8 187.8,850.3" fill="#2b393e" opacity="0.94"/>
<polygon points="179.4,842.4 194.3,847.9 187.8,850.3 172.9,844.8" fill="#637176" opacity="0.97"/>
<polygon points="1018.2,840.3 998.8,847.5 998.8,832.5 1018.2,825.4" fill="#b58561" opacity="0.94"/>
<polygon points="998.8,847.5 992.0,845.0 992.0,830.0 998.8,832.5" fill="#a57551" opacity="0.94"/>
<polygon points="1011.4,822.8 1018.2,825.4 998.8,832.5 992.0,830.0" fill="#ddad89" opacity="0.97"/>
<polygon points="1018.9,825.2 998.5,832.8 998.5,829.6 1018.9,822.0" fill="#4f2d23" opacity="0.94"/>
<polygon points="998.5,832.8 991.4,830.1 991.4,826.9 998.5,829.6" fill="#3f1d13" opacity="0.94"/>
<polygon points="1011.7,819.4 1018.9,822.0 998.5,829.6 991.4,826.9" fill="#77554b" opacity="0.97"/>
<polygon points="1156.2,845.5 1141.0,851.2 1141.0,850.3 1156.2,844.7" fill="#424846" opacity="0.94"/>
<polygon points="1141.0,851.2 1116.5,842.1 1116.5,841.3 1141.0,850.3" fill="#323836" opacity="0.94"/>
<polygon points="1131.8,835.6 1156.2,844.7 1141.0,850.3 1116.5,841.3" fill="#6a706e" opacity="0.97"/>
<polygon points="1148.8,842.6 1134.2,848.0 1134.2,837.2 1148.8,831.8" fill="#818d86" opacity="0.94"/>
<polygon points="1134.2,848.0 1128.6,846.0 1128.6,835.1 1134.2,837.2" fill="#717d76" opacity="0.94"/>
<polygon points="1143.3,829.7 1148.8,831.8 1134.2,837.2 1128.6,835.1" fill="#a9b5ae" opacity="0.97"/>
<polygon points="1149.3,831.7 1133.9,837.4 1133.9,834.8 1149.3,829.0" fill="#4d5049" opacity="0.94"/>
<polygon points="1133.9,837.4 1128.1,835.2 1128.1,832.6 1133.9,834.8" fill="#3d4039" opacity="0.94"/>
<polygon points="1143.5,826.9 1149.3,829.0 1133.9,834.8 1128.1,832.6" fill="#757871" opacity="0.97"/>
<polygon points="284.7,869.1 282.9,869.8 282.9,859.5 284.7,858.8" fill="#474f4d" opacity="0.94"/>
<polygon points="282.9,869.8 234.5,851.9 234.5,841.5 282.9,859.5" fill="#373f3d" opacity="0.94"/>
<polygon points="236.3,840.8 284.7,858.8 282.9,859.5 234.5,841.5" fill="#6f7775" opacity="0.97"/>
<polygon points="1153.5,845.1 1138.9,850.5 1138.9,839.7 1153.5,834.3" fill="#b4a993" opacity="0.94"/>
<polygon points="1138.9,850.5 1133.3,848.5 1133.3,837.7 1138.9,839.7" fill="#a49983" opacity="0.94"/>
<polygon points="1148.0,832.2 1153.5,834.3 1138.9,839.7 1133.3,837.7" fill="#dcd1bb" opacity="0.97"/>
<polygon points="1154.0,834.2 1138.6,839.9 1138.6,837.3 1154.0,831.6" fill="#4d5049" opacity="0.94"/>
<polygon points="1138.6,839.9 1132.8,837.8 1132.8,835.1 1138.6,837.3" fill="#3d4039" opacity="0.94"/>
<polygon points="1148.2,829.4 1154.0,831.6 1138.6,837.3 1132.8,835.1" fill="#757871" opacity="0.97"/>
<polygon points="588.0,858.6 536.4,877.7 536.4,876.0 588.0,856.9" fill="#424846" opacity="0.94"/>
<polygon points="536.4,877.7 447.9,844.9 447.9,843.2 536.4,876.0" fill="#323836" opacity="0.94"/>
<polygon points="499.5,824.1 588.0,856.9 536.4,876.0 447.9,843.2" fill="#6a706e" opacity="0.97"/>
<polygon points="585.4,856.6 535.7,875.0 535.7,851.8 585.4,833.4" fill="#3a484e" opacity="0.94"/>
<polygon points="535.7,875.0 450.5,843.5 450.5,820.2 535.7,851.8" fill="#2a383e" opacity="0.94"/>
<polygon points="500.2,801.9 585.4,833.4 535.7,851.8 450.5,820.2" fill="#627076" opacity="0.97"/>
<polygon points="586.0,833.5 535.9,852.0 535.9,847.3 586.0,828.7" fill="#172328" opacity="0.94"/>
<polygon points="535.9,852.0 449.9,820.2 449.9,815.4 535.9,847.3" fill="#071318" opacity="0.94"/>
<polygon points="500.0,796.9 586.0,828.7 535.9,847.3 449.9,815.4" fill="#3f4b50" opacity="0.97"/>
<polygon points="242.2,846.7 188.4,866.6 188.4,865.3 242.2,845.4" fill="#344248" opacity="0.94"/>
<polygon points="188.4,866.6 179.7,863.3 179.7,862.0 188.4,865.3" fill="#243238" opacity="0.94"/>
<polygon points="233.4,842.1 242.2,845.4 188.4,865.3 179.7,862.0" fill="#5c6a70" opacity="0.97"/>
<polygon points="228.3,859.5 222.9,861.5 222.9,822.8 228.3,820.8" fill="#546168" opacity="0.94"/>
<polygon points="222.9,861.5 207.7,855.9 207.7,817.2 222.9,822.8" fill="#445158" opacity="0.94"/>
<polygon points="213.1,815.2 228.3,820.8 222.9,822.8 207.7,817.2" fill="#7c8990" opacity="0.97"/>
<polygon points="552.7,863.9 523.5,874.7 523.5,873.4 552.7,862.5" fill="#424846" opacity="0.94"/>
<polygon points="523.5,874.7 462.9,852.3 462.9,850.9 523.5,873.4" fill="#323836" opacity="0.94"/>
<polygon points="492.1,840.1 552.7,862.5 523.5,873.4 462.9,850.9" fill="#6a706e" opacity="0.97"/>
<polygon points="551.0,862.3 522.9,872.7 522.9,847.8 551.0,837.4" fill="#4e6068" opacity="0.94"/>
<polygon points="522.9,872.7 464.6,851.1 464.6,826.2 522.9,847.8" fill="#3e5058" opacity="0.94"/>
<polygon points="492.7,815.8 551.0,837.4 522.9,847.8 464.6,826.2" fill="#768890" opacity="0.97"/>
<polygon points="551.4,837.4 523.1,847.9 523.1,842.4 551.4,831.8" fill="#23353d" opacity="0.94"/>
<polygon points="523.1,847.9 464.2,826.1 464.2,820.5 523.1,842.4" fill="#13252d" opacity="0.94"/>
<polygon points="492.5,810.0 551.4,831.8 523.1,842.4 464.2,820.5" fill="#4b5d65" opacity="0.97"/>
<polygon points="339.9,883.6 338.1,884.3 338.1,873.5 339.9,872.8" fill="#474f4d" opacity="0.94"/>
<polygon points="338.1,884.3 289.6,866.3 289.6,855.5 338.1,873.5" fill="#373f3d" opacity="0.94"/>
<polygon points="291.5,854.8 339.9,872.8 338.1,873.5 289.6,855.5" fill="#6f7775" opacity="0.97"/>
<polygon points="268.8,867.0 262.3,869.4 262.3,868.1 268.8,865.7" fill="#3b494e" opacity="0.94"/>
<polygon points="262.3,869.4 248.2,864.2 248.2,862.9 262.3,868.1" fill="#2b393e" opacity="0.94"/>
<polygon points="254.7,860.5 268.8,865.7 262.3,868.1 248.2,862.9" fill="#637176" opacity="0.97"/>
<polygon points="313.2,864.7 263.1,883.3 263.1,882.0 313.2,863.4" fill="#344248" opacity="0.94"/>
<polygon points="263.1,883.3 254.8,880.2 254.8,878.9 263.1,882.0" fill="#243238" opacity="0.94"/>
<polygon points="304.9,860.3 313.2,863.4 263.1,882.0 254.8,878.9" fill="#5c6a70" opacity="0.97"/>
<polygon points="1146.7,868.4 1132.8,873.5 1132.8,872.8 1146.7,867.6" fill="#424846" opacity="0.94"/>
<polygon points="1132.8,873.5 1117.4,867.8 1117.4,867.1 1132.8,872.8" fill="#323836" opacity="0.94"/>
<polygon points="1131.3,861.9 1146.7,867.6 1132.8,872.8 1117.4,867.1" fill="#6a706e" opacity="0.97"/>
<polygon points="1145.7,867.4 1132.3,872.4 1132.3,866.9 1145.7,862.0" fill="#a79d8b" opacity="0.94"/>
<polygon points="1132.3,872.4 1118.4,867.2 1118.4,861.8 1132.3,866.9" fill="#978d7b" opacity="0.94"/>
<polygon points="1131.8,856.8 1145.7,862.0 1132.3,866.9 1118.4,861.8" fill="#cfc5b3" opacity="0.97"/>
<polygon points="1146.4,862.0 1132.4,867.2 1132.4,861.2 1146.4,855.9" fill="#4d5049" opacity="0.94"/>
<polygon points="1132.4,867.2 1117.7,861.8 1117.7,855.7 1132.4,861.2" fill="#3d4039" opacity="0.94"/>
<polygon points="1131.8,850.5 1146.4,855.9 1132.4,861.2 1117.7,855.7" fill="#757871" opacity="0.97"/>
<polygon points="1203.1,874.6 1190.1,879.4 1190.1,878.7 1203.1,873.8" fill="#424846" opacity="0.94"/>
<polygon points="1190.1,879.4 1176.2,874.3 1176.2,873.5 1190.1,878.7" fill="#323836" opacity="0.94"/>
<polygon points="1189.2,868.7 1203.1,873.8 1190.1,878.7 1176.2,873.5" fill="#6a706e" opacity="0.97"/>
<polygon points="1202.2,873.7 1189.6,878.3 1189.6,871.4 1202.2,866.7" fill="#a79d8b" opacity="0.94"/>
<polygon points="1189.6,878.3 1177.1,873.7 1177.1,866.7 1189.6,871.4" fill="#978d7b" opacity="0.94"/>
<polygon points="1189.6,862.1 1202.2,866.7 1189.6,871.4 1177.1,866.7" fill="#cfc5b3" opacity="0.97"/>
<polygon points="395.4,897.9 393.5,898.5 393.5,887.2 395.4,886.6" fill="#474f4d" opacity="0.94"/>
<polygon points="393.5,898.5 345.1,880.6 345.1,869.3 393.5,887.2" fill="#373f3d" opacity="0.94"/>
<polygon points="347.0,868.6 395.4,886.6 393.5,887.2 345.1,869.3" fill="#6f7775" opacity="0.97"/>
<polygon points="1202.8,866.7 1189.6,871.6 1189.6,865.7 1202.8,860.8" fill="#4d5049" opacity="0.94"/>
<polygon points="1189.6,871.6 1176.5,866.7 1176.5,860.8 1189.6,865.7" fill="#3d4039" opacity="0.94"/>
<polygon points="1189.6,855.9 1202.8,860.8 1189.6,865.7 1176.5,860.8" fill="#757871" opacity="0.97"/>
<polygon points="744.6,880.1 733.0,884.4 733.0,865.8 744.6,861.5" fill="#565c5a" opacity="0.94"/>
<polygon points="733.0,884.4 721.3,880.1 721.3,861.5 733.0,865.8" fill="#464c4a" opacity="0.94"/>
<polygon points="733.0,857.2 744.6,861.5 733.0,865.8 721.3,861.5" fill="#7e8482" opacity="0.97"/>
<polygon points="1283.1,879.5 1268.9,884.7 1268.9,884.0 1283.1,878.8" fill="#424846" opacity="0.94"/>
<polygon points="1268.9,884.7 1254.7,879.5 1254.7,878.7 1268.9,884.0" fill="#323836" opacity="0.94"/>
<polygon points="1268.9,873.5 1283.1,878.8 1268.9,884.0 1254.7,878.7" fill="#6a706e" opacity="0.97"/>
<polygon points="1282.2,878.6 1268.5,883.7 1268.5,876.0 1282.2,870.9" fill="#a79d8b" opacity="0.94"/>
<polygon points="1268.5,883.7 1255.7,878.9 1255.7,871.2 1268.5,876.0" fill="#978d7b" opacity="0.94"/>
<polygon points="1269.3,866.2 1282.2,870.9 1268.5,876.0 1255.7,871.2" fill="#cfc5b3" opacity="0.97"/>
<polygon points="1282.8,870.9 1268.5,876.2 1268.5,870.2 1282.8,864.9" fill="#4d5049" opacity="0.94"/>
<polygon points="1268.5,876.2 1255.0,871.2 1255.0,865.2 1268.5,870.2" fill="#3d4039" opacity="0.94"/>
<polygon points="1269.3,859.9 1282.8,864.9 1268.5,870.2 1255.0,865.2" fill="#757871" opacity="0.97"/>
<polygon points="722.8,880.6 711.1,884.9 711.1,862.2 722.8,857.9" fill="#565c5a" opacity="0.94"/>
<polygon points="711.1,884.9 699.5,880.6 699.5,857.9 711.1,862.2" fill="#464c4a" opacity="0.94"/>
<polygon points="711.1,853.5 722.8,857.9 711.1,862.2 699.5,857.9" fill="#7e8482" opacity="0.97"/>
<polygon points="1051.2,875.8 1019.7,887.5 1019.7,871.0 1051.2,859.3" fill="#7c8e89" opacity="0.94"/>
<polygon points="1019.7,887.5 1009.1,883.5 1009.1,867.1 1019.7,871.0" fill="#6c7e79" opacity="0.94"/>
<polygon points="1040.6,855.4 1051.2,859.3 1019.7,871.0 1009.1,867.1" fill="#a4b6b1" opacity="0.97"/>
<polygon points="1050.2,859.5 1020.2,870.6 1020.2,867.2 1050.2,856.1" fill="#3e524d" opacity="0.94"/>
<polygon points="1020.2,870.6 1010.1,866.9 1010.1,863.5 1020.2,867.2" fill="#2e423d" opacity="0.94"/>
<polygon points="1040.1,852.4 1050.2,856.1 1020.2,867.2 1010.1,863.5" fill="#667a75" opacity="0.97"/>
<polygon points="755.4,883.5 721.7,896.0 721.7,895.0 755.4,882.5" fill="#424846" opacity="0.94"/>
<polygon points="721.7,896.0 686.8,883.1 686.8,882.1 721.7,895.0" fill="#323836" opacity="0.94"/>
<polygon points="720.5,869.6 755.4,882.5 721.7,895.0 686.8,882.1" fill="#6a706e" opacity="0.97"/>
<polygon points="1163.2,884.0 1150.7,888.7 1150.7,887.9 1163.2,883.3" fill="#424846" opacity="0.94"/>
<polygon points="1150.7,888.7 1139.3,884.4 1139.3,883.7 1150.7,887.9" fill="#323836" opacity="0.94"/>
<polygon points="1151.8,879.1 1163.2,883.3 1150.7,887.9 1139.3,883.7" fill="#6a706e" opacity="0.97"/>
<polygon points="1162.4,883.2 1150.4,887.6 1150.4,879.8 1162.4,875.3" fill="#a79d8b" opacity="0.94"/>
<polygon points="1150.4,887.6 1140.1,883.8 1140.1,876.0 1150.4,879.8" fill="#978d7b" opacity="0.94"/>
<polygon points="1152.1,871.5 1162.4,875.3 1150.4,879.8 1140.1,876.0" fill="#cfc5b3" opacity="0.97"/>
<polygon points="1163.0,875.3 1150.3,880.0 1150.3,875.1 1163.0,870.5" fill="#4d5049" opacity="0.94"/>
<polygon points="1150.3,880.0 1139.5,876.0 1139.5,871.1 1150.3,875.1" fill="#3d4039" opacity="0.94"/>
<polygon points="1152.2,866.5 1163.0,870.5 1150.3,875.1 1139.5,871.1" fill="#757871" opacity="0.97"/>
<polygon points="734.0,886.9 722.4,891.3 722.4,870.6 734.0,866.3" fill="#65675e" opacity="0.94"/>
<polygon points="722.4,891.3 710.7,886.9 710.7,866.3 722.4,870.6" fill="#55574e" opacity="0.94"/>
<polygon points="722.4,862.0 734.0,866.3 722.4,870.6 710.7,866.3" fill="#8d8f86" opacity="0.97"/>
<polygon points="1026.6,889.6 1019.6,892.2 1019.6,879.4 1026.6,876.8" fill="#6d7f79" opacity="0.94"/>
<polygon points="1019.6,892.2 996.0,883.5 996.0,870.6 1019.6,879.4" fill="#5d6f69" opacity="0.94"/>
<polygon points="1003.0,868.1 1026.6,876.8 1019.6,879.4 996.0,870.6" fill="#95a7a1" opacity="0.97"/>
<polygon points="1025.8,876.7 1019.2,879.1 1019.2,875.2 1025.8,872.8" fill="#3e524d" opacity="0.94"/>
<polygon points="1019.2,879.1 996.8,870.8 996.8,866.9 1019.2,875.2" fill="#2e423d" opacity="0.94"/>
<polygon points="1003.4,864.5 1025.8,872.8 1019.2,875.2 996.8,866.9" fill="#667a75" opacity="0.97"/>
<polygon points="1065.3,889.9 1032.5,902.1 1032.5,901.2 1065.3,889.0" fill="#424846" opacity="0.94"/>
<polygon points="1032.5,902.1 990.1,886.4 990.1,885.5 1032.5,901.2" fill="#323836" opacity="0.94"/>
<polygon points="1022.9,873.4 1065.3,889.0 1032.5,901.2 990.1,885.5" fill="#6a706e" opacity="0.97"/>
<polygon points="452.5,911.2 450.7,911.9 450.7,900.1 452.5,899.4" fill="#474f4d" opacity="0.94"/>
<polygon points="450.7,911.9 402.2,893.9 402.2,882.1 450.7,900.1" fill="#373f3d" opacity="0.94"/>
<polygon points="404.1,881.5 452.5,899.4 450.7,900.1 402.2,882.1" fill="#6f7775" opacity="0.97"/>
<polygon points="1059.4,891.1 1052.4,893.7 1052.4,880.8 1059.4,878.3" fill="#6d7f79" opacity="0.94"/>
<polygon points="1052.4,893.7 1028.8,884.9 1028.8,872.1 1052.4,880.8" fill="#5d6f69" opacity="0.94"/>
<polygon points="1035.8,869.5 1059.4,878.3 1052.4,880.8 1028.8,872.1" fill="#95a7a1" opacity="0.97"/>
<polygon points="1058.6,878.1 1052.0,880.5 1052.0,876.7 1058.6,874.2" fill="#3e524d" opacity="0.94"/>
<polygon points="1052.0,880.5 1029.6,872.2 1029.6,868.4 1052.0,876.7" fill="#2e423d" opacity="0.94"/>
<polygon points="1036.2,865.9 1058.6,874.2 1052.0,876.7 1029.6,868.4" fill="#667a75" opacity="0.97"/>
<polygon points="1046.3,891.0 1014.8,902.7 1014.8,886.2 1046.3,874.6" fill="#97a294" opacity="0.94"/>
<polygon points="1014.8,902.7 1004.2,898.8 1004.2,882.3 1014.8,886.2" fill="#879284" opacity="0.94"/>
<polygon points="1035.7,870.7 1046.3,874.6 1014.8,886.2 1004.2,882.3" fill="#bfcabc" opacity="0.97"/>
<polygon points="1045.3,874.8 1015.3,885.9 1015.3,882.4 1045.3,871.3" fill="#3e524d" opacity="0.94"/>
<polygon points="1015.3,885.9 1005.3,882.1 1005.3,878.7 1015.3,882.4" fill="#2e423d" opacity="0.94"/>
<polygon points="1035.2,867.6 1045.3,871.3 1015.3,882.4 1005.3,878.7" fill="#667a75" opacity="0.97"/>
<polygon points="510.9,923.8 509.1,924.5 509.1,912.2 510.9,911.5" fill="#474f4d" opacity="0.94"/>
<polygon points="509.1,924.5 460.6,906.5 460.6,894.2 509.1,912.2" fill="#373f3d" opacity="0.94"/>
<polygon points="462.5,893.6 510.9,911.5 509.1,912.2 460.6,894.2" fill="#6f7775" opacity="0.97"/>
<polygon points="454.9,906.0 448.4,908.4 448.4,907.1 454.9,904.7" fill="#3b494e" opacity="0.94"/>
<polygon points="448.4,908.4 438.0,904.5 438.0,903.2 448.4,907.1" fill="#2b393e" opacity="0.94"/>
<polygon points="444.5,900.8 454.9,904.7 448.4,907.1 438.0,903.2" fill="#637176" opacity="0.97"/>
<polygon points="1121.9,881.6 1105.5,887.6 1105.5,876.7 1121.9,870.7" fill="#7c8e89" opacity="0.94"/>
<polygon points="1105.5,887.6 1082.0,878.9 1082.0,868.0 1105.5,876.7" fill="#6c7e79" opacity="0.94"/>
<polygon points="1098.4,862.0 1121.9,870.7 1105.5,876.7 1082.0,868.0" fill="#a4b6b1" opacity="0.97"/>
<polygon points="1120.7,870.6 1105.3,876.3 1105.3,873.4 1120.7,867.7" fill="#3e524d" opacity="0.94"/>
<polygon points="1105.3,876.3 1083.2,868.1 1083.2,865.2 1105.3,873.4" fill="#2e423d" opacity="0.94"/>
<polygon points="1098.6,859.5 1120.7,867.7 1105.3,873.4 1083.2,865.2" fill="#667a75" opacity="0.97"/>
<polygon points="1129.4,905.3 1104.3,914.6 1104.3,913.8 1129.4,904.5" fill="#424846" opacity="0.94"/>
<polygon points="1104.3,914.6 1069.4,901.7 1069.4,900.9 1104.3,913.8" fill="#323836" opacity="0.94"/>
<polygon points="1094.5,891.6 1129.4,904.5 1104.3,913.8 1069.4,900.9" fill="#6a706e" opacity="0.97"/>
<polygon points="1128.2,904.5 1104.1,913.4 1104.1,892.2 1128.2,883.3" fill="#97a294" opacity="0.94"/>
<polygon points="1104.1,913.4 1070.6,901.0 1070.6,879.8 1104.1,892.2" fill="#879284" opacity="0.94"/>
<polygon points="1094.7,870.9 1128.2,883.3 1104.1,892.2 1070.6,879.8" fill="#bfcabc" opacity="0.97"/>
<polygon points="485.6,904.1 450.8,917.0 450.8,915.7 485.6,902.9" fill="#344248" opacity="0.94"/>
<polygon points="450.8,917.0 444.7,914.8 444.7,913.5 450.8,915.7" fill="#243238" opacity="0.94"/>
<polygon points="479.5,900.6 485.6,902.9 450.8,915.7 444.7,913.5" fill="#5c6a70" opacity="0.97"/>
<rect x="784.6" y="601.9" width="83.6" height="25" rx="6" fill="#f2eee5" fill-opacity="0.88"/>
<text x="826.4" y="619.9" text-anchor="middle" font-family="system-ui,sans-serif" font-size="13" font-weight="800" letter-spacing="0.8" fill="#263238">DOWNTOWN</text>
<rect x="599.4" y="551.9" width="76.0" height="25" rx="6" fill="#f2eee5" fill-opacity="0.88"/>
<text x="637.4" y="569.9" text-anchor="middle" font-family="system-ui,sans-serif" font-size="13" font-weight="800" letter-spacing="0.8" fill="#263238">CIVIC</text>
<rect x="972.1" y="675.9" width="108.2" height="25" rx="6" fill="#f2eee5" fill-opacity="0.88"/>
<text x="1026.2" y="693.9" text-anchor="middle" font-family="system-ui,sans-serif" font-size="13" font-weight="800" letter-spacing="0.8" fill="#263238">OLD QUARTER</text>
<rect x="550.8" y="725.9" width="76.0" height="25" rx="6" fill="#f2eee5" fill-opacity="0.88"/>
<text x="588.8" y="743.9" text-anchor="middle" font-family="system-ui,sans-serif" font-size="13" font-weight="800" letter-spacing="0.8" fill="#263238">FORGE</text>
<rect x="270.0" y="701.9" width="76.0" height="25" rx="6" fill="#f2eee5" fill-opacity="0.88"/>
<text x="308.0" y="719.9" text-anchor="middle" font-family="system-ui,sans-serif" font-size="13" font-weight="800" letter-spacing="0.8" fill="#263238">PORT</text>
<rect x="977.5" y="485.9" width="108.2" height="25" rx="6" fill="#f2eee5" fill-opacity="0.88"/>
<text x="1031.6" y="503.9" text-anchor="middle" font-family="system-ui,sans-serif" font-size="13" font-weight="800" letter-spacing="0.8" fill="#263238">NORTH ASTER</text>
<rect x="1149.0" y="735.9" width="100.0" height="25" rx="6" fill="#f2eee5" fill-opacity="0.88"/>
<text x="1199.0" y="753.9" text-anchor="middle" font-family="system-ui,sans-serif" font-size="13" font-weight="800" letter-spacing="0.8" fill="#263238">EAST ASTER</text>
</svg>