<svg xmlns="http://www.w3.org/2000/svg" width="1600" height="1120" viewBox="0 0 1600 1120">
<rect width="100%" height="100%" fill="#edf0ed"/>
<text x="70" y="45" font-family="system-ui,sans-serif" font-size="28" font-weight="700" fill="#263238">Skyline settlements reference placement diagnostic</text>
<text x="70" y="72" font-family="system-ui,sans-serif" font-size="15" fill="#526168">Road-linked parcels, districts, exclusions, shoreline and landmark anchors</text>
<polygon points="449.7,808.8 926.9,808.8 957.6,493.3 516.4,465.1 429.2,578.0" fill="#56666c" fill-opacity="0.10" stroke="#56666c" stroke-width="2"/>
<polygon points="588.2,749.8 803.7,744.7 824.2,595.9 593.4,580.5" fill="#9ba9ad" fill-opacity="0.22" stroke="#9ba9ad" stroke-width="1.3"/>
<polygon points="454.8,731.9 588.2,749.8 593.4,580.5 495.9,519.0 436.9,598.5" fill="#b3a68e" fill-opacity="0.22" stroke="#b3a68e" stroke-width="1.3"/>
<polygon points="803.7,744.7 926.9,721.6 949.9,519.0 824.2,595.9" fill="#a99582" fill-opacity="0.22" stroke="#a99582" stroke-width="1.3"/>
<polygon points="593.4,580.5 824.2,595.9 949.9,519.0 516.4,465.1 495.9,519.0" fill="#9eaaa4" fill-opacity="0.22" stroke="#9eaaa4" stroke-width="1.3"/>
<polygon points="413.8,988.4 834.5,993.6 926.9,808.8 449.7,808.8" fill="#6e7b72" fill-opacity="0.10" stroke="#6e7b72" stroke-width="2"/>
<polygon points="413.8,988.4 834.5,993.6 849.9,880.7 475.3,865.3" fill="#a8b09d" fill-opacity="0.22" stroke="#a8b09d" stroke-width="1.3"/>
<polygon points="475.3,865.3 849.9,880.7 926.9,808.8 449.7,808.8" fill="#9eaaa4" fill-opacity="0.22" stroke="#9eaaa4" stroke-width="1.3"/>
<polygon points="926.9,808.8 1137.2,747.3 1106.4,495.9 957.6,493.3" fill="#6e7b72" fill-opacity="0.10" stroke="#6e7b72" stroke-width="2"/>
<polygon points="926.9,808.8 1137.2,747.3 1106.4,578.0 957.6,598.5" fill="#a8b09d" fill-opacity="0.22" stroke="#a8b09d" stroke-width="1.3"/>
<polygon points="957.6,598.5 1106.4,578.0 1106.4,495.9 957.6,493.3" fill="#9eaaa4" fill-opacity="0.22" stroke="#9eaaa4" stroke-width="1.3"/>
<polygon points="547.2,485.6 880.7,498.4 911.5,306.0 629.3,265.0 501.0,347.1" fill="#555f62" fill-opacity="0.10" stroke="#555f62" stroke-width="2"/>
<polygon points="608.7,454.8 844.8,470.2 880.7,326.5 654.9,290.6" fill="#8d9291" fill-opacity="0.22" stroke="#8d9291" stroke-width="1.3"/>
<polygon points="501.0,347.1 654.9,290.6 911.5,306.0 629.3,265.0" fill="#7f898b" fill-opacity="0.22" stroke="#7f898b" stroke-width="1.3"/>
<polygon points="326.5,326.5 849.9,372.7 893.5,252.1 362.5,190.6" fill="#526970" fill-opacity="0.10" stroke="#526970" stroke-width="2"/>
<polygon points="326.5,326.5 849.9,372.7 870.4,280.4 357.3,216.2" fill="#84969b" fill-opacity="0.22" stroke="#84969b" stroke-width="1.3"/>
<polygon points="1050.0,1009.0 1219.3,942.3 1252.7,767.8 1091.0,793.5" fill="#756d62" fill-opacity="0.10" stroke="#756d62" stroke-width="2"/>
<polygon points="1091.0,957.6 1193.7,916.6 1214.2,808.8 1106.4,819.1" fill="#b49b80" fill-opacity="0.22" stroke="#b49b80" stroke-width="1.3"/>
<polygon points="829.4,1050.0 973.0,1029.5 1050.0,860.2 916.6,839.6" fill="#756d62" fill-opacity="0.10" stroke="#756d62" stroke-width="2"/>
<polygon points="849.9,1019.2 957.6,1003.8 1009.0,880.7 916.6,860.2" fill="#b49b80" fill-opacity="0.22" stroke="#b49b80" stroke-width="1.3"/>
<polygon points="1193.7,747.3 1332.2,690.8 1327.1,547.2 1214.2,557.4" fill="#807667" fill-opacity="0.10" stroke="#807667" stroke-width="2"/>
<polygon points="254.7,1050.0 383.0,1024.3 465.1,901.2 377.9,860.2 265.0,926.9" fill="#807667" fill-opacity="0.10" stroke="#807667" stroke-width="2"/>
<polygon points="70.0,1029.5 223.9,1014.1 280.4,521.5 136.7,495.9" fill="#6f755e" fill-opacity="0.10" stroke="#6f755e" stroke-width="2"/>
<polygon points="70.0,1029.5 223.9,1014.1 280.4,521.5 136.7,495.9" fill="#a7a183" fill-opacity="0.22" stroke="#a7a183" stroke-width="1.3"/>
<polygon points="1085.9,521.5 1234.7,511.3 1363.0,100.8 1219.3,70.0" fill="#6f755e" fill-opacity="0.10" stroke="#6f755e" stroke-width="2"/>
<polygon points="1085.9,521.5 1234.7,511.3 1363.0,100.8 1219.3,70.0" fill="#a7a183" fill-opacity="0.22" stroke="#a7a183" stroke-width="1.3"/>
<polygon points="916.6,495.9 1121.8,485.6 1127.0,383.0 926.9,393.2" fill="#c04b43" fill-opacity="0.18" stroke="#a03e38" stroke-width="2" stroke-dasharray="8 5"/>
<polygon points="347.1,470.2 403.5,480.5 516.4,362.5 475.3,347.1" fill="#c04b43" fill-opacity="0.18" stroke="#a03e38" stroke-width="2" stroke-dasharray="8 5"/>
<polyline points="162.4,177.7 326.5,190.6 495.9,211.1 675.4,241.9 860.2,290.6 1050.0,352.2" fill="none" stroke="#4d8493" stroke-width="9" stroke-linecap="round" opacity="0.72"/>
<polyline points="244.5,675.4 449.7,667.7 654.9,657.5 870.4,647.2 1106.4,603.6" fill="none" stroke="#38464b" stroke-width="9.235602094240837" stroke-linecap="round" stroke-linejoin="round" opacity="0.58"/>
<polyline points="475.3,747.3 578.0,772.9 696.0,747.3 803.7,701.1 844.8,598.5 752.4,521.5 603.6,511.3 495.9,578.0 475.3,747.3" fill="none" stroke="#38464b" stroke-width="7.183246073298429" stroke-linecap="round" stroke-linejoin="round" opacity="0.58"/>
<polyline points="495.9,957.6 562.6,860.2 634.4,772.9 696.0,665.2" fill="none" stroke="#38464b" stroke-width="6.670157068062827" stroke-linecap="round" stroke-linejoin="round" opacity="0.58"/>
<polyline points="855.0,829.4 901.2,726.8 962.8,619.0 1050.0,506.1" fill="none" stroke="#38464b" stroke-width="6.670157068062827" stroke-linecap="round" stroke-linejoin="round" opacity="0.58"/>
<polyline points="634.4,593.4 670.3,480.5 726.8,372.7 762.7,275.2" fill="none" stroke="#38464b" stroke-width="8.209424083769633" stroke-linecap="round" stroke-linejoin="round" opacity="0.58"/>
<polyline points="295.8,280.4 449.7,290.6 619.0,303.5 808.8,326.5 983.3,362.5" fill="none" stroke="#38464b" stroke-width="7.696335078534031" stroke-linecap="round" stroke-linejoin="round" opacity="0.58"/>
<polyline points="1029.5,1039.7 1111.6,952.5 1178.3,839.6 1234.7,716.5 1286.0,598.5" fill="none" stroke="#38464b" stroke-width="5.643979057591623" stroke-linecap="round" stroke-linejoin="round" opacity="0.58"/>
<polyline points="860.2,1029.5 916.6,947.4 973.0,860.2 1029.5,778.1" fill="none" stroke="#38464b" stroke-width="5.643979057591623" stroke-linecap="round" stroke-linejoin="round" opacity="0.58"/>
<polyline points="90.5,1009.0 157.2,880.7 198.3,726.8 234.2,531.8" fill="none" stroke="#38464b" stroke-width="4.617801047120419" stroke-linecap="round" stroke-linejoin="round" opacity="0.58"/>
<polyline points="1106.4,511.3 1173.1,398.4 1245.0,259.8 1327.1,100.8" fill="none" stroke="#38464b" stroke-width="4.617801047120419" stroke-linecap="round" stroke-linejoin="round" opacity="0.58"/>
<polyline points="275.2,1029.5 362.5,993.6 424.0,932.0 459.9,860.2" fill="none" stroke="#38464b" stroke-width="4.104712041884817" stroke-linecap="round" stroke-linejoin="round" opacity="0.58"/>
<polygon points="671.8,649.7 691.7,648.8 690.6,623.7 670.7,624.6" fill="#f4f0e7" fill-opacity="0.80" stroke="#4d5759" stroke-width="0.75"/>
<polygon points="699.3,648.3 720.5,647.3 719.5,626.5 698.3,627.5" fill="#f4f0e7" fill-opacity="0.80" stroke="#4d5759" stroke-width="0.75"/>
<polygon points="672.0,616.7 688.3,616.1 687.6,598.3 671.3,598.9" fill="#f4f0e7" fill-opacity="0.80" stroke="#4d5759" stroke-width="0.75"/>
<polygon points="672.7,697.0 689.3,695.8 688.2,680.8 671.7,682.0" fill="#f4f0e7" fill-opacity="0.80" stroke="#4d5759" stroke-width="0.75"/>
<polygon points="704.2,616.4 723.1,615.2 721.8,595.4 703.0,596.6" fill="#f4f0e7" fill-opacity="0.80" stroke="#4d5759" stroke-width="0.75"/>
<polygon points="638.1,643.8 658.4,642.7 657.5,625.6 637.2,626.8" fill="#f4f0e7" fill-opacity="0.80" stroke="#4d5759" stroke-width="0.75"/>
<polygon points="640.4,686.0 660.3,685.1 659.4,667.4 639.5,668.4" fill="#f4f0e7" fill-opacity="0.80" stroke="#4d5759" stroke-width="0.75"/>
<polygon points="697.5,704.8 720.5,703.1 718.5,677.0 695.5,678.7" fill="#f4f0e7" fill-opacity="0.80" stroke="#4d5759" stroke-width="0.75"/>
<polygon points="737.9,644.6 758.3,643.6 757.3,623.5 737.0,624.5" fill="#f4f0e7" fill-opacity="0.80" stroke="#4d5759" stroke-width="0.75"/>
<polygon points="738.7,614.4 754.6,613.7 753.9,597.4 738.0,598.0" fill="#f4f0e7" fill-opacity="0.80" stroke="#4d5759" stroke-width="0.75"/>
<polygon points="740.4,682.4 759.4,681.5 758.5,661.6 739.5,662.5" fill="#f4f0e7" fill-opacity="0.80" stroke="#4d5759" stroke-width="0.75"/>
<polygon points="636.7,607.4 656.1,606.4 655.3,589.3 635.8,590.3" fill="#f4f0e7" fill-opacity="0.80" stroke="#4d5759" stroke-width="0.75"/>
<polygon points="730.6,712.0 744.8,705.8 737.8,689.9 723.6,696.1" fill="#f4f0e7" fill-opacity="0.80" stroke="#4d5759" stroke-width="0.75"/>
<polygon points="663.1,726.7 679.8,722.8 675.3,703.5 658.6,707.5" fill="#f4f0e7" fill-opacity="0.80" stroke="#4d5759" stroke-width="0.75"/>
<polygon points="606.2,649.8 624.3,648.8 623.4,630.1 605.3,631.1" fill="#f4f0e7" fill-opacity="0.80" stroke="#4d5759" stroke-width="0.75"/>
<polygon points="766.1,671.5 782.3,670.7 781.6,656.0 765.4,656.8" fill="#f4f0e7" fill-opacity="0.80" stroke="#4d5759" stroke-width="0.75"/>
<polygon points="636.6,724.4 654.6,720.8 651.2,704.0 633.2,707.7" fill="#f4f0e7" fill-opacity="0.80" stroke="#4d5759" stroke-width="0.75"/>
<polygon points="692.8,734.7 711.6,726.5 704.2,709.7 685.4,717.9" fill="#f4f0e7" fill-opacity="0.80" stroke="#4d5759" stroke-width="0.75"/>
<polygon points="605.3,690.7 629.7,689.0 628.2,667.1 603.8,668.8" fill="#f4f0e7" fill-opacity="0.80" stroke="#4d5759" stroke-width="0.75"/>
<polygon points="604.1,621.4 625.6,619.8 624.2,600.2 602.7,601.7" fill="#f4f0e7" fill-opacity="0.80" stroke="#4d5759" stroke-width="0.75"/>
<polygon points="757.5,712.2 772.6,705.9 764.6,686.5 749.4,692.8" fill="#f4f0e7" fill-opacity="0.80" stroke="#4d5759" stroke-width="0.75"/>
<polygon points="780.2,641.2 799.1,640.5 798.6,625.5 779.6,626.2" fill="#f4f0e7" fill-opacity="0.80" stroke="#4d5759" stroke-width="0.75"/>
<polygon points="605.3,717.5 625.8,716.8 625.3,701.9 604.8,702.6" fill="#f4f0e7" fill-opacity="0.80" stroke="#4d5759" stroke-width="0.75"/>
<polygon points="792.2,671.7 812.3,670.8 811.6,652.4 791.4,653.2" fill="#f4f0e7" fill-opacity="0.80" stroke="#4d5759" stroke-width="0.75"/>
<polygon points="786.5,622.8 808.2,621.4 807.3,606.5 785.5,607.9" fill="#f4f0e7" fill-opacity="0.80" stroke="#4d5759" stroke-width="0.75"/>
<polygon points="560.9,724.3 584.3,729.7 589.0,709.0 565.6,703.6" fill="#f4f0e7" fill-opacity="0.80" stroke="#4d5759" stroke-width="0.75"/>
<polygon points="520.3,695.7 548.7,693.9 547.4,673.5 519.0,675.3" fill="#f4f0e7" fill-opacity="0.80" stroke="#4d5759" stroke-width="0.75"/>
<polygon points="502.6,617.3 498.7,646.1 516.1,648.5 520.0,619.7" fill="#f4f0e7" fill-opacity="0.80" stroke="#4d5759" stroke-width="0.75"/>
<polygon points="551.9,584.6 527.4,599.1 540.9,622.0 565.4,607.5" fill="#f4f0e7" fill-opacity="0.80" stroke="#4d5759" stroke-width="0.75"/>
<polygon points="524.5,565.3 505.3,577.9 518.6,598.1 537.8,585.4" fill="#f4f0e7" fill-opacity="0.80" stroke="#4d5759" stroke-width="0.75"/>
<polygon points="502.8,699.7 499.7,728.4 517.8,730.3 520.9,701.6" fill="#f4f0e7" fill-opacity="0.80" stroke="#4d5759" stroke-width="0.75"/>
<polygon points="468.6,563.4 464.9,591.5 482.7,593.9 486.4,565.7" fill="#f4f0e7" fill-opacity="0.80" stroke="#4d5759" stroke-width="0.75"/>
<polygon points="461.7,610.9 457.3,642.5 480.7,645.7 485.0,614.1" fill="#f4f0e7" fill-opacity="0.80" stroke="#4d5759" stroke-width="0.75"/>
<polygon points="474.1,673.3 470.1,701.5 494.2,705.0 498.2,676.7" fill="#f4f0e7" fill-opacity="0.80" stroke="#4d5759" stroke-width="0.75"/>
<polygon points="564.3,645.9 588.3,645.0 587.5,623.1 563.5,624.0" fill="#f4f0e7" fill-opacity="0.80" stroke="#4d5759" stroke-width="0.75"/>
<polygon points="557.0,694.8 578.7,693.2 577.1,671.1 555.4,672.7" fill="#f4f0e7" fill-opacity="0.80" stroke="#4d5759" stroke-width="0.75"/>
<polygon points="539.7,651.4 557.9,650.6 556.8,628.0 538.6,628.8" fill="#f4f0e7" fill-opacity="0.80" stroke="#4d5759" stroke-width="0.75"/>
<polygon points="516.0,540.7 496.8,553.0 506.3,567.7 525.5,555.3" fill="#f4f0e7" fill-opacity="0.80" stroke="#4d5759" stroke-width="0.75"/>
<polygon points="711.9,570.8 692.9,569.9 692.3,582.5 711.3,583.4" fill="#f4f0e7" fill-opacity="0.80" stroke="#4d5759" stroke-width="0.75"/>
<polygon points="642.9,566.4 629.6,565.5 628.8,577.8 642.1,578.7" fill="#f4f0e7" fill-opacity="0.80" stroke="#4d5759" stroke-width="0.75"/>
<polygon points="704.6,548.4 689.2,546.9 687.4,566.3 702.7,567.8" fill="#f4f0e7" fill-opacity="0.80" stroke="#4d5759" stroke-width="0.75"/>
<polygon points="744.9,568.0 734.6,559.4 727.1,568.4 737.4,577.0" fill="#f4f0e7" fill-opacity="0.80" stroke="#4d5759" stroke-width="0.75"/>
<polygon points="759.6,582.5 747.3,572.5 740.5,580.8 752.8,590.8" fill="#f4f0e7" fill-opacity="0.80" stroke="#4d5759" stroke-width="0.75"/>
<polygon points="680.0,550.0 661.1,549.2 660.6,562.7 679.4,563.5" fill="#f4f0e7" fill-opacity="0.80" stroke="#4d5759" stroke-width="0.75"/>
<polygon points="728.8,528.8 715.4,527.9 714.5,540.8 727.9,541.7" fill="#f4f0e7" fill-opacity="0.80" stroke="#4d5759" stroke-width="0.75"/>
<polygon points="690.6,522.0 678.3,521.4 677.7,534.6 689.9,535.2" fill="#f4f0e7" fill-opacity="0.80" stroke="#4d5759" stroke-width="0.75"/>
<polygon points="745.5,532.3 731.6,531.3 730.5,545.8 744.4,546.8" fill="#f4f0e7" fill-opacity="0.80" stroke="#4d5759" stroke-width="0.75"/>
<polygon points="655.5,545.8 632.3,544.7 631.5,562.3 654.7,563.4" fill="#f4f0e7" fill-opacity="0.80" stroke="#4d5759" stroke-width="0.75"/>
<polygon points="626.6,549.3 608.3,547.7 606.8,563.5 625.1,565.2" fill="#f4f0e7" fill-opacity="0.80" stroke="#4d5759" stroke-width="0.75"/>
<polygon points="779.0,557.4 768.3,548.8 758.5,561.0 769.3,569.6" fill="#f4f0e7" fill-opacity="0.80" stroke="#4d5759" stroke-width="0.75"/>
<polygon points="792.9,566.3 782.7,558.0 775.4,567.0 785.6,575.3" fill="#f4f0e7" fill-opacity="0.80" stroke="#4d5759" stroke-width="0.75"/>
<polygon points="665.6,519.9 647.9,519.1 647.3,534.1 664.9,534.9" fill="#f4f0e7" fill-opacity="0.80" stroke="#4d5759" stroke-width="0.75"/>
<polygon points="594.9,548.0 581.3,555.9 587.4,566.4 601.0,558.5" fill="#f4f0e7" fill-opacity="0.80" stroke="#4d5759" stroke-width="0.75"/>
<polygon points="835.3,674.0 840.2,661.0 829.2,656.9 824.4,669.9" fill="#f4f0e7" fill-opacity="0.80" stroke="#4d5759" stroke-width="0.75"/>
<polygon points="676.0,496.9 662.9,496.1 662.1,509.9 675.2,510.7" fill="#f4f0e7" fill-opacity="0.80" stroke="#4d5759" stroke-width="0.75"/>
<polygon points="835.7,642.5 841.2,629.2 825.8,622.8 820.2,636.1" fill="#f4f0e7" fill-opacity="0.80" stroke="#4d5759" stroke-width="0.75"/>
<polygon points="715.4,498.3 699.5,497.4 698.9,509.7 714.7,510.6" fill="#f4f0e7" fill-opacity="0.80" stroke="#4d5759" stroke-width="0.75"/>
<polygon points="838.2,621.0 843.6,607.1 829.0,601.4 823.5,615.3" fill="#f4f0e7" fill-opacity="0.80" stroke="#4d5759" stroke-width="0.75"/>
<polygon points="754.4,496.3 741.6,495.3 740.6,507.9 753.3,509.0" fill="#f4f0e7" fill-opacity="0.80" stroke="#4d5759" stroke-width="0.75"/>
<polygon points="641.8,514.0 620.2,513.1 619.0,540.2 640.7,541.1" fill="#f4f0e7" fill-opacity="0.80" stroke="#4d5759" stroke-width="0.75"/>
<polygon points="588.3,530.2 576.1,538.0 582.8,548.5 595.0,540.6" fill="#f4f0e7" fill-opacity="0.80" stroke="#4d5759" stroke-width="0.75"/>
<polygon points="835.7,699.7 842.7,681.9 831.1,677.4 824.1,695.2" fill="#f4f0e7" fill-opacity="0.80" stroke="#4d5759" stroke-width="0.75"/>
<polygon points="602.6,895.0 609.6,886.5 600.7,879.1 593.7,887.7" fill="#f4f0e7" fill-opacity="0.80" stroke="#4d5759" stroke-width="0.75"/>
<polygon points="588.2,901.3 594.1,892.5 585.5,886.7 579.6,895.6" fill="#f4f0e7" fill-opacity="0.80" stroke="#4d5759" stroke-width="0.75"/>
<polygon points="645.8,846.5 655.4,835.3 644.8,826.2 635.2,837.4" fill="#f4f0e7" fill-opacity="0.80" stroke="#4d5759" stroke-width="0.75"/>
<polygon points="617.7,860.2 629.9,845.4 618.4,835.9 606.2,850.7" fill="#f4f0e7" fill-opacity="0.80" stroke="#4d5759" stroke-width="0.75"/>
<polygon points="591.1,863.6 599.7,853.3 590.4,845.6 581.8,855.9" fill="#f4f0e7" fill-opacity="0.80" stroke="#4d5759" stroke-width="0.75"/>
<polygon points="576.0,932.2 582.7,921.8 571.5,914.6 564.8,925.0" fill="#f4f0e7" fill-opacity="0.80" stroke="#4d5759" stroke-width="0.75"/>
<polygon points="562.5,895.5 570.0,884.4 558.4,876.5 550.8,887.5" fill="#f4f0e7" fill-opacity="0.80" stroke="#4d5759" stroke-width="0.75"/>
<polygon points="550.3,911.6 555.4,904.4 545.3,897.2 540.2,904.5" fill="#f4f0e7" fill-opacity="0.80" stroke="#4d5759" stroke-width="0.75"/>
<polygon points="601.1,847.9 614.5,831.0 602.5,821.5 589.1,838.5" fill="#f4f0e7" fill-opacity="0.80" stroke="#4d5759" stroke-width="0.75"/>
<polygon points="555.5,960.5 563.3,949.8 556.4,944.8 548.7,955.6" fill="#f4f0e7" fill-opacity="0.80" stroke="#4d5759" stroke-width="0.75"/>
<polygon points="539.1,933.2 546.1,922.6 537.6,916.9 530.6,927.5" fill="#f4f0e7" fill-opacity="0.80" stroke="#4d5759" stroke-width="0.75"/>
<polygon points="566.2,845.7 577.3,832.0 565.4,822.3 554.3,836.1" fill="#f4f0e7" fill-opacity="0.80" stroke="#4d5759" stroke-width="0.75"/>
<polygon points="550.9,862.4 560.4,849.0 549.1,841.0 539.6,854.5" fill="#f4f0e7" fill-opacity="0.80" stroke="#4d5759" stroke-width="0.75"/>
<polygon points="530.6,955.8 536.1,948.1 528.2,942.6 522.8,950.3" fill="#f4f0e7" fill-opacity="0.80" stroke="#4d5759" stroke-width="0.75"/>
<polygon points="530.3,902.2 538.9,889.5 529.2,882.9 520.6,895.7" fill="#f4f0e7" fill-opacity="0.80" stroke="#4d5759" stroke-width="0.75"/>
<polygon points="546.5,989.0 553.1,978.9 542.6,972.0 535.9,982.1" fill="#f4f0e7" fill-opacity="0.80" stroke="#4d5759" stroke-width="0.75"/>
<polygon points="549.4,832.3 561.1,818.7 549.7,809.0 538.1,822.6" fill="#f4f0e7" fill-opacity="0.80" stroke="#4d5759" stroke-width="0.75"/>
<polygon points="503.0,901.1 508.2,893.7 500.1,887.9 494.8,895.2" fill="#f4f0e7" fill-opacity="0.80" stroke="#4d5759" stroke-width="0.75"/>
<polygon points="528.4,980.3 535.7,969.6 528.3,964.5 521.0,975.2" fill="#f4f0e7" fill-opacity="0.80" stroke="#4d5759" stroke-width="0.75"/>
<polygon points="531.5,844.6 540.9,830.9 529.6,823.1 520.2,836.8" fill="#f4f0e7" fill-opacity="0.80" stroke="#4d5759" stroke-width="0.75"/>
<polygon points="514.0,918.6 523.6,904.9 511.9,896.8 502.4,910.5" fill="#f4f0e7" fill-opacity="0.80" stroke="#4d5759" stroke-width="0.75"/>
<polygon points="509.0,887.3 517.8,874.4 507.5,867.4 498.7,880.3" fill="#f4f0e7" fill-opacity="0.80" stroke="#4d5759" stroke-width="0.75"/>
<polygon points="501.4,933.9 508.0,924.4 499.3,918.4 492.7,927.9" fill="#f4f0e7" fill-opacity="0.80" stroke="#4d5759" stroke-width="0.75"/>
<polygon points="513.9,971.7 522.5,959.2 508.0,949.3 499.5,961.8" fill="#f4f0e7" fill-opacity="0.80" stroke="#4d5759" stroke-width="0.75"/>
<polygon points="485.0,921.8 490.8,913.7 481.0,906.7 475.1,914.9" fill="#f4f0e7" fill-opacity="0.80" stroke="#4d5759" stroke-width="0.75"/>
<polygon points="486.4,951.7 493.9,941.1 484.8,934.6 477.2,945.2" fill="#f4f0e7" fill-opacity="0.80" stroke="#4d5759" stroke-width="0.75"/>
<polygon points="486.1,985.4 491.0,978.5 482.3,972.3 477.4,979.2" fill="#f4f0e7" fill-opacity="0.80" stroke="#4d5759" stroke-width="0.75"/>
<polygon points="459.1,931.5 466.3,920.7 455.8,913.8 448.7,924.7" fill="#f4f0e7" fill-opacity="0.80" stroke="#4d5759" stroke-width="0.75"/>
<polygon points="458.0,988.0 467.0,974.3 454.8,966.2 445.7,979.9" fill="#f4f0e7" fill-opacity="0.80" stroke="#4d5759" stroke-width="0.75"/>
<polygon points="444.4,961.6 453.4,947.7 440.7,939.5 431.7,953.4" fill="#f4f0e7" fill-opacity="0.80" stroke="#4d5759" stroke-width="0.75"/>
<polygon points="1020.3,641.4 1033.1,638.7 1030.2,624.6 1017.4,627.2" fill="#f4f0e7" fill-opacity="0.80" stroke="#4d5759" stroke-width="0.75"/>
<polygon points="1035.1,658.9 1054.1,655.0 1050.9,639.3 1031.9,643.2" fill="#f4f0e7" fill-opacity="0.80" stroke="#4d5759" stroke-width="0.75"/>
<polygon points="1043.3,637.1 1057.8,634.2 1055.0,620.0 1040.4,622.9" fill="#f4f0e7" fill-opacity="0.80" stroke="#4d5759" stroke-width="0.75"/>
<polygon points="999.0,647.5 1007.4,645.8 1005.3,634.8 996.9,636.4" fill="#f4f0e7" fill-opacity="0.80" stroke="#4d5759" stroke-width="0.75"/>
<polygon points="1065.8,656.7 1075.0,654.9 1072.6,642.6 1063.4,644.4" fill="#f4f0e7" fill-opacity="0.80" stroke="#4d5759" stroke-width="0.75"/>
<polygon points="1006.9,618.8 1020.4,616.2 1018.3,605.1 1004.8,607.7" fill="#f4f0e7" fill-opacity="0.80" stroke="#4d5759" stroke-width="0.75"/>
<polygon points="1068.8,633.2 1080.1,631.0 1078.5,622.7 1067.2,624.9" fill="#f4f0e7" fill-opacity="0.80" stroke="#4d5759" stroke-width="0.75"/>
<polygon points="1040.8,606.4 1049.1,604.7 1047.2,595.2 1038.9,596.9" fill="#f4f0e7" fill-opacity="0.80" stroke="#4d5759" stroke-width="0.75"/>
<polygon points="992.2,615.2 1002.1,613.6 1000.5,604.0 990.6,605.6" fill="#f4f0e7" fill-opacity="0.80" stroke="#4d5759" stroke-width="0.75"/>
<polygon points="977.9,660.6 994.1,657.6 991.7,644.3 975.4,647.3" fill="#f4f0e7" fill-opacity="0.80" stroke="#4d5759" stroke-width="0.75"/>
<polygon points="976.7,623.4 987.1,621.7 985.6,613.1 975.2,614.9" fill="#f4f0e7" fill-opacity="0.80" stroke="#4d5759" stroke-width="0.75"/>
<polygon points="1065.9,597.1 1075.2,595.2 1073.5,586.8 1064.1,588.8" fill="#f4f0e7" fill-opacity="0.80" stroke="#4d5759" stroke-width="0.75"/>
<polygon points="1092.5,662.4 1107.8,659.1 1104.2,642.3 1088.9,645.7" fill="#f4f0e7" fill-opacity="0.80" stroke="#4d5759" stroke-width="0.75"/>
<polygon points="1091.4,625.8 1104.1,623.2 1102.1,613.7 1089.4,616.3" fill="#f4f0e7" fill-opacity="0.80" stroke="#4d5759" stroke-width="0.75"/>
<polygon points="962.9,642.4 974.5,640.2 972.6,629.9 961.0,632.1" fill="#f4f0e7" fill-opacity="0.80" stroke="#4d5759" stroke-width="0.75"/>
<polygon points="1012.4,590.8 1021.8,578.9 1010.8,570.3 1001.4,582.2" fill="#f4f0e7" fill-opacity="0.80" stroke="#4d5759" stroke-width="0.75"/>
<polygon points="1043.1,584.8 1053.4,572.1 1041.4,562.4 1031.1,575.2" fill="#f4f0e7" fill-opacity="0.80" stroke="#4d5759" stroke-width="0.75"/>
<polygon points="1088.1,597.4 1097.0,595.7 1094.7,584.1 1085.8,585.8" fill="#f4f0e7" fill-opacity="0.80" stroke="#4d5759" stroke-width="0.75"/>
<polygon points="971.7,690.0 977.5,679.4 966.4,673.3 960.6,683.9" fill="#f4f0e7" fill-opacity="0.80" stroke="#4d5759" stroke-width="0.75"/>
<polygon points="1068.5,575.9 1080.7,560.6 1065.2,548.1 1052.9,563.3" fill="#f4f0e7" fill-opacity="0.80" stroke="#4d5759" stroke-width="0.75"/>
<polygon points="975.1,592.6 984.4,580.3 970.6,569.9 961.3,582.1" fill="#f4f0e7" fill-opacity="0.80" stroke="#4d5759" stroke-width="0.75"/>
<polygon points="989.3,574.9 1000.6,560.9 987.6,550.4 976.3,564.5" fill="#f4f0e7" fill-opacity="0.80" stroke="#4d5759" stroke-width="0.75"/>
<polygon points="959.7,715.4 966.0,704.0 956.1,698.5 949.7,709.8" fill="#f4f0e7" fill-opacity="0.80" stroke="#4d5759" stroke-width="0.75"/>
<polygon points="1046.3,556.1 1055.9,543.5 1041.1,532.1 1031.4,544.7" fill="#f4f0e7" fill-opacity="0.80" stroke="#4d5759" stroke-width="0.75"/>
<polygon points="1072.5,546.7 1081.3,535.9 1070.8,527.5 1062.1,538.3" fill="#f4f0e7" fill-opacity="0.80" stroke="#4d5759" stroke-width="0.75"/>
<polygon points="1000.9,554.7 1013.6,538.7 999.2,527.3 986.5,543.3" fill="#f4f0e7" fill-opacity="0.80" stroke="#4d5759" stroke-width="0.75"/>
<polygon points="1058.5,538.6 1071.6,521.3 1058.5,511.3 1045.4,528.6" fill="#f4f0e7" fill-opacity="0.80" stroke="#4d5759" stroke-width="0.75"/>
<polygon points="1018.4,533.7 1027.3,522.6 1016.1,513.7 1007.3,524.8" fill="#f4f0e7" fill-opacity="0.80" stroke="#4d5759" stroke-width="0.75"/>
<polygon points="1029.4,518.7 1036.9,508.6 1024.7,499.7 1017.3,509.8" fill="#f4f0e7" fill-opacity="0.80" stroke="#4d5759" stroke-width="0.75"/>
<polygon points="975.9,534.6 987.8,519.4 977.9,511.6 966.0,526.9" fill="#f4f0e7" fill-opacity="0.80" stroke="#4d5759" stroke-width="0.75"/>
<polygon points="999.3,520.1 1009.2,507.0 998.7,499.1 988.8,512.1" fill="#f4f0e7" fill-opacity="0.80" stroke="#4d5759" stroke-width="0.75"/>
<polygon points="757.1,420.9 770.6,394.3 749.9,383.9 736.4,410.5" fill="#f4f0e7" fill-opacity="0.80" stroke="#4d5759" stroke-width="0.75"/>
<polygon points="702.0,403.4 718.0,371.8 686.4,355.8 670.4,387.4" fill="#f4f0e7" fill-opacity="0.80" stroke="#4d5759" stroke-width="0.75"/>
<polygon points="747.5,369.4 762.9,327.4 740.1,319.0 724.8,361.1" fill="#f4f0e7" fill-opacity="0.80" stroke="#4d5759" stroke-width="0.75"/>
<polygon points="685.4,343.3 715.8,347.7 719.1,324.7 688.7,320.3" fill="#f4f0e7" fill-opacity="0.80" stroke="#4d5759" stroke-width="0.75"/>
<polygon points="832.3,372.1 863.7,378.4 869.6,349.1 838.2,342.9" fill="#f4f0e7" fill-opacity="0.80" stroke="#4d5759" stroke-width="0.75"/>
<polygon points="675.9,440.8 694.2,404.4 673.0,393.7 654.7,430.2" fill="#f4f0e7" fill-opacity="0.80" stroke="#4d5759" stroke-width="0.75"/>
<polygon points="775.8,382.0 787.1,353.4 769.0,346.2 757.7,374.8" fill="#f4f0e7" fill-opacity="0.80" stroke="#4d5759" stroke-width="0.75"/>
<polygon points="723.5,458.2 736.0,434.1 712.6,422.0 700.2,446.2" fill="#f4f0e7" fill-opacity="0.80" stroke="#4d5759" stroke-width="0.75"/>
<polygon points="647.3,338.7 670.1,341.3 672.7,319.0 649.9,316.4" fill="#f4f0e7" fill-opacity="0.80" stroke="#4d5759" stroke-width="0.75"/>
<polygon points="790.8,357.2 815.5,362.8 821.5,336.2 796.8,330.6" fill="#f4f0e7" fill-opacity="0.80" stroke="#4d5759" stroke-width="0.75"/>
<polygon points="598.2,288.9 621.7,290.7 623.3,270.0 599.8,268.2" fill="#f4f0e7" fill-opacity="0.80" stroke="#4d5759" stroke-width="0.75"/>
<polygon points="595.1,332.7 618.3,334.3 619.7,314.1 596.5,312.6" fill="#f4f0e7" fill-opacity="0.80" stroke="#4d5759" stroke-width="0.75"/>
<polygon points="523.3,285.1 542.7,286.8 544.3,268.2 524.8,266.6" fill="#f4f0e7" fill-opacity="0.80" stroke="#4d5759" stroke-width="0.75"/>
<polygon points="641.0,288.1 668.0,291.1 671.4,261.3 644.4,258.3" fill="#f4f0e7" fill-opacity="0.80" stroke="#4d5759" stroke-width="0.75"/>
<polygon points="539.2,325.3 578.2,328.4 580.4,300.8 541.4,297.7" fill="#f4f0e7" fill-opacity="0.80" stroke="#4d5759" stroke-width="0.75"/>
<polygon points="504.1,321.9 536.2,324.0 537.4,305.1 505.3,303.1" fill="#f4f0e7" fill-opacity="0.80" stroke="#4d5759" stroke-width="0.75"/>
<polygon points="673.3,301.8 699.4,305.1 702.6,280.0 676.5,276.7" fill="#f4f0e7" fill-opacity="0.80" stroke="#4d5759" stroke-width="0.75"/>
<polygon points="636.9,339.0 675.2,343.3 677.4,324.2 639.0,320.0" fill="#f4f0e7" fill-opacity="0.80" stroke="#4d5759" stroke-width="0.75"/>
<polygon points="486.3,283.1 518.2,286.1 520.0,266.3 488.2,263.3" fill="#f4f0e7" fill-opacity="0.80" stroke="#4d5759" stroke-width="0.75"/>
<polygon points="465.8,321.7 492.2,323.2 493.2,305.8 466.8,304.3" fill="#f4f0e7" fill-opacity="0.80" stroke="#4d5759" stroke-width="0.75"/>
<polygon points="442.6,278.0 470.3,280.0 471.5,262.6 443.8,260.7" fill="#f4f0e7" fill-opacity="0.80" stroke="#4d5759" stroke-width="0.75"/>
<polygon points="690.5,345.4 723.6,349.0 725.6,330.2 692.5,326.6" fill="#f4f0e7" fill-opacity="0.80" stroke="#4d5759" stroke-width="0.75"/>
<polygon points="434.0,245.4 451.9,246.2 452.6,228.7 434.8,228.0" fill="#f4f0e7" fill-opacity="0.80" stroke="#4d5759" stroke-width="0.75"/>
<polygon points="425.9,324.5 456.7,325.9 457.8,304.3 427.0,302.8" fill="#f4f0e7" fill-opacity="0.80" stroke="#4d5759" stroke-width="0.75"/>
<polygon points="720.0,283.3 752.6,286.6 754.3,269.6 721.7,266.4" fill="#f4f0e7" fill-opacity="0.80" stroke="#4d5759" stroke-width="0.75"/>
<polygon points="408.7,286.0 434.9,287.9 436.7,263.4 410.5,261.4" fill="#f4f0e7" fill-opacity="0.80" stroke="#4d5759" stroke-width="0.75"/>
<polygon points="393.6,245.1 418.4,246.8 419.6,229.6 394.8,227.9" fill="#f4f0e7" fill-opacity="0.80" stroke="#4d5759" stroke-width="0.75"/>
<polygon points="761.3,362.6 782.8,365.3 785.9,340.4 764.4,337.7" fill="#f4f0e7" fill-opacity="0.80" stroke="#4d5759" stroke-width="0.75"/>
<polygon points="386.1,323.2 416.7,326.0 418.6,305.8 388.0,302.9" fill="#f4f0e7" fill-opacity="0.80" stroke="#4d5759" stroke-width="0.75"/>
<polygon points="375.4,284.4 395.5,285.5 396.5,267.0 376.4,265.9" fill="#f4f0e7" fill-opacity="0.80" stroke="#4d5759" stroke-width="0.75"/>
<polygon points="780.3,322.0 808.1,325.4 810.5,306.7 782.6,303.2" fill="#f4f0e7" fill-opacity="0.80" stroke="#4d5759" stroke-width="0.75"/>
<polygon points="347.4,321.7 381.1,324.9 383.1,304.8 349.3,301.6" fill="#f4f0e7" fill-opacity="0.80" stroke="#4d5759" stroke-width="0.75"/>
<polygon points="821.4,324.2 839.0,327.6 844.0,301.8 826.3,298.5" fill="#f4f0e7" fill-opacity="0.80" stroke="#4d5759" stroke-width="0.75"/>
<polygon points="792.5,355.1 820.8,360.3 824.5,340.2 796.2,335.1" fill="#f4f0e7" fill-opacity="0.80" stroke="#4d5759" stroke-width="0.75"/>
<polygon points="1143.5,887.9 1152.0,873.7 1136.1,864.2 1127.6,878.3" fill="#f4f0e7" fill-opacity="0.80" stroke="#4d5759" stroke-width="0.75"/>
<polygon points="1167.7,903.1 1177.0,887.5 1162.2,878.7 1153.0,894.3" fill="#f4f0e7" fill-opacity="0.80" stroke="#4d5759" stroke-width="0.75"/>
<polygon points="1155.3,867.6 1164.6,852.5 1148.9,842.8 1139.6,857.9" fill="#f4f0e7" fill-opacity="0.80" stroke="#4d5759" stroke-width="0.75"/>
<polygon points="1178.1,881.2 1187.4,865.1 1176.4,858.9 1167.2,874.9" fill="#f4f0e7" fill-opacity="0.80" stroke="#4d5759" stroke-width="0.75"/>
<polygon points="1120.8,873.2 1128.2,861.0 1119.0,855.4 1111.6,867.5" fill="#f4f0e7" fill-opacity="0.80" stroke="#4d5759" stroke-width="0.75"/>
<polygon points="1126.3,907.2 1136.0,891.1 1125.9,885.0 1116.3,901.1" fill="#f4f0e7" fill-opacity="0.80" stroke="#4d5759" stroke-width="0.75"/>
<polygon points="1155.2,921.5 1162.4,909.4 1150.0,902.0 1142.9,914.2" fill="#f4f0e7" fill-opacity="0.80" stroke="#4d5759" stroke-width="0.75"/>
<polygon points="1135.3,853.6 1142.6,840.9 1129.1,833.2 1121.9,845.9" fill="#f4f0e7" fill-opacity="0.80" stroke="#4d5759" stroke-width="0.75"/>
<polygon points="1167.2,845.5 1175.5,830.9 1163.5,824.1 1155.2,838.7" fill="#f4f0e7" fill-opacity="0.80" stroke="#4d5759" stroke-width="0.75"/>
<polygon points="1194.6,863.3 1204.3,846.1 1187.3,836.6 1177.6,853.8" fill="#f4f0e7" fill-opacity="0.80" stroke="#4d5759" stroke-width="0.75"/>
<polygon points="1115.5,929.2 1125.3,912.5 1112.2,904.7 1102.3,921.5" fill="#f4f0e7" fill-opacity="0.80" stroke="#4d5759" stroke-width="0.75"/>
<polygon points="1202.8,834.8 1208.9,822.0 1196.6,816.2 1190.5,829.0" fill="#f4f0e7" fill-opacity="0.80" stroke="#4d5759" stroke-width="0.75"/>
<polygon points="937.3,956.5 946.7,941.9 936.3,935.2 927.0,949.9" fill="#f4f0e7" fill-opacity="0.80" stroke="#4d5759" stroke-width="0.75"/>
<polygon points="952.2,933.5 960.5,920.3 950.2,913.8 941.9,927.1" fill="#f4f0e7" fill-opacity="0.80" stroke="#4d5759" stroke-width="0.75"/>
<polygon points="924.2,976.9 930.9,967.6 919.5,959.5 912.9,968.8" fill="#f4f0e7" fill-opacity="0.80" stroke="#4d5759" stroke-width="0.75"/>
<polygon points="928.0,916.9 935.5,905.0 924.4,898.1 916.9,910.0" fill="#f4f0e7" fill-opacity="0.80" stroke="#4d5759" stroke-width="0.75"/>
<polygon points="911.5,941.4 922.5,924.8 910.4,916.9 899.5,933.5" fill="#f4f0e7" fill-opacity="0.80" stroke="#4d5759" stroke-width="0.75"/>
<polygon points="964.8,912.0 974.7,896.1 963.7,889.3 953.8,905.2" fill="#f4f0e7" fill-opacity="0.80" stroke="#4d5759" stroke-width="0.75"/>
<polygon points="896.7,960.6 905.9,947.9 893.8,939.2 884.6,951.9" fill="#f4f0e7" fill-opacity="0.80" stroke="#4d5759" stroke-width="0.75"/>
<polygon points="940.8,897.7 951.8,880.1 938.6,871.8 927.5,889.4" fill="#f4f0e7" fill-opacity="0.80" stroke="#4d5759" stroke-width="0.75"/>
<polygon points="905.7,1002.6 918.2,984.2 905.6,975.6 893.1,994.1" fill="#f4f0e7" fill-opacity="0.80" stroke="#4d5759" stroke-width="0.75"/>
<polygon points="884.2,985.1 894.2,970.9 880.6,961.2 870.5,975.4" fill="#f4f0e7" fill-opacity="0.80" stroke="#4d5759" stroke-width="0.75"/>
<polygon points="1262.1,637.8 1267.2,626.1 1256.1,621.3 1251.0,632.9" fill="#f4f0e7" fill-opacity="0.80" stroke="#4d5759" stroke-width="0.75"/>
<polygon points="1284.5,646.0 1288.4,636.7 1278.9,632.7 1275.0,642.0" fill="#f4f0e7" fill-opacity="0.80" stroke="#4d5759" stroke-width="0.75"/>
<polygon points="1272.6,676.7 1276.1,668.8 1266.3,664.5 1262.8,672.4" fill="#f4f0e7" fill-opacity="0.80" stroke="#4d5759" stroke-width="0.75"/>
<polygon points="1247.6,671.5 1255.0,653.6 1241.5,648.1 1234.1,665.9" fill="#f4f0e7" fill-opacity="0.80" stroke="#4d5759" stroke-width="0.75"/>
<polygon points="1227.0,659.1 1231.9,647.2 1223.5,643.7 1218.6,655.6" fill="#f4f0e7" fill-opacity="0.80" stroke="#4d5759" stroke-width="0.75"/>
<polygon points="1272.9,607.0 1278.8,593.6 1265.0,587.5 1259.1,600.8" fill="#f4f0e7" fill-opacity="0.80" stroke="#4d5759" stroke-width="0.75"/>
<polygon points="1299.9,617.0 1304.5,606.5 1292.5,601.2 1288.0,611.7" fill="#f4f0e7" fill-opacity="0.80" stroke="#4d5759" stroke-width="0.75"/>
<polygon points="1291.2,687.9 1296.8,674.6 1286.4,670.2 1280.7,683.4" fill="#f4f0e7" fill-opacity="0.80" stroke="#4d5759" stroke-width="0.75"/>
<polygon points="1318.5,624.2 1322.6,615.2 1312.5,610.7 1308.5,619.7" fill="#f4f0e7" fill-opacity="0.80" stroke="#4d5759" stroke-width="0.75"/>
<polygon points="1258.3,709.1 1263.2,697.7 1251.5,692.7 1246.6,704.1" fill="#f4f0e7" fill-opacity="0.80" stroke="#4d5759" stroke-width="0.75"/>
<polygon points="1235.8,702.9 1243.4,685.6 1228.9,679.2 1221.3,696.5" fill="#f4f0e7" fill-opacity="0.80" stroke="#4d5759" stroke-width="0.75"/>
<polygon points="1219.6,728.7 1224.9,717.5 1215.8,713.2 1210.5,724.5" fill="#f4f0e7" fill-opacity="0.80" stroke="#4d5759" stroke-width="0.75"/>
<polygon points="371.6,975.8 380.9,966.3 373.2,958.8 363.9,968.3" fill="#f4f0e7" fill-opacity="0.80" stroke="#4d5759" stroke-width="0.75"/>
<polygon points="342.6,998.7 357.5,992.3 350.8,976.5 335.8,982.9" fill="#f4f0e7" fill-opacity="0.80" stroke="#4d5759" stroke-width="0.75"/>
<polygon points="389.1,990.7 395.9,983.9 388.4,976.5 381.6,983.3" fill="#f4f0e7" fill-opacity="0.80" stroke="#4d5759" stroke-width="0.75"/>
<polygon points="308.7,1007.7 317.6,1004.1 314.5,996.3 305.6,999.9" fill="#f4f0e7" fill-opacity="0.80" stroke="#4d5759" stroke-width="0.75"/>
<polygon points="398.0,949.5 408.2,939.3 400.5,931.5 390.2,941.7" fill="#f4f0e7" fill-opacity="0.80" stroke="#4d5759" stroke-width="0.75"/>
<polygon points="352.8,1018.2 363.8,1013.8 358.1,999.7 347.2,1004.1" fill="#f4f0e7" fill-opacity="0.80" stroke="#4d5759" stroke-width="0.75"/>
<polygon points="414.6,967.9 426.7,956.3 416.5,945.7 404.4,957.3" fill="#f4f0e7" fill-opacity="0.80" stroke="#4d5759" stroke-width="0.75"/>
<polygon points="315.1,1032.9 330.9,1026.4 325.7,1013.8 309.9,1020.4" fill="#f4f0e7" fill-opacity="0.80" stroke="#4d5759" stroke-width="0.75"/>
<polygon points="418.6,920.0 423.9,908.9 414.8,904.5 409.5,915.6" fill="#f4f0e7" fill-opacity="0.80" stroke="#4d5759" stroke-width="0.75"/>
<polygon points="272.9,1024.2 284.5,1019.5 280.1,1008.7 268.5,1013.4" fill="#f4f0e7" fill-opacity="0.80" stroke="#4d5759" stroke-width="0.75"/>
<polygon points="442.4,934.8 450.3,919.5 439.2,913.8 431.3,929.1" fill="#f4f0e7" fill-opacity="0.80" stroke="#4d5759" stroke-width="0.75"/>
<polygon points="175.2,789.0 178.4,776.9 166.2,773.7 163.0,785.8" fill="#f4f0e7" fill-opacity="0.80" stroke="#4d5759" stroke-width="0.75"/>
<polygon points="184.7,754.6 189.7,734.6 177.2,731.4 172.1,751.4" fill="#f4f0e7" fill-opacity="0.80" stroke="#4d5759" stroke-width="0.75"/>
<polygon points="200.0,796.0 203.4,783.2 190.0,779.6 186.6,792.4" fill="#f4f0e7" fill-opacity="0.80" stroke="#4d5759" stroke-width="0.75"/>
<polygon points="208.7,761.7 214.3,740.7 201.7,737.3 196.1,758.3" fill="#f4f0e7" fill-opacity="0.80" stroke="#4d5759" stroke-width="0.75"/>
<polygon points="161.2,826.1 164.3,814.4 154.9,811.9 151.7,823.6" fill="#f4f0e7" fill-opacity="0.80" stroke="#4d5759" stroke-width="0.75"/>
<polygon points="191.0,716.0 195.1,696.3 182.8,693.8 178.8,713.5" fill="#f4f0e7" fill-opacity="0.80" stroke="#4d5759" stroke-width="0.75"/>
<polygon points="192.1,834.0 195.0,822.7 182.4,819.5 179.5,830.9" fill="#f4f0e7" fill-opacity="0.80" stroke="#4d5759" stroke-width="0.75"/>
<polygon points="218.3,722.9 222.7,699.3 210.0,696.9 205.6,720.5" fill="#f4f0e7" fill-opacity="0.80" stroke="#4d5759" stroke-width="0.75"/>
<polygon points="199.6,672.0 201.5,662.3 188.6,659.7 186.6,669.4" fill="#f4f0e7" fill-opacity="0.80" stroke="#4d5759" stroke-width="0.75"/>
<polygon points="228.8,678.0 231.0,667.2 218.9,664.8 216.7,675.5" fill="#f4f0e7" fill-opacity="0.80" stroke="#4d5759" stroke-width="0.75"/>
<polygon points="154.8,865.2 157.9,854.2 145.8,850.7 142.6,861.7" fill="#f4f0e7" fill-opacity="0.80" stroke="#4d5759" stroke-width="0.75"/>
<polygon points="182.8,879.2 189.2,855.8 171.3,851.0 164.9,874.4" fill="#f4f0e7" fill-opacity="0.80" stroke="#4d5759" stroke-width="0.75"/>
<polygon points="232.3,644.2 236.8,622.1 224.8,619.6 220.2,641.8" fill="#f4f0e7" fill-opacity="0.80" stroke="#4d5759" stroke-width="0.75"/>
<polygon points="164.8,913.3 170.2,902.3 158.5,896.5 153.1,907.6" fill="#f4f0e7" fill-opacity="0.80" stroke="#4d5759" stroke-width="0.75"/>
<polygon points="208.2,638.6 212.2,618.7 194.3,615.2 190.4,635.1" fill="#f4f0e7" fill-opacity="0.80" stroke="#4d5759" stroke-width="0.75"/>
<polygon points="142.0,903.6 149.2,889.5 132.2,880.7 124.9,894.8" fill="#f4f0e7" fill-opacity="0.80" stroke="#4d5759" stroke-width="0.75"/>
<polygon points="1244.6,305.1 1252.3,289.5 1238.4,282.6 1230.7,298.2" fill="#f4f0e7" fill-opacity="0.80" stroke="#4d5759" stroke-width="0.75"/>
<polygon points="1225.7,338.9 1230.9,328.4 1219.0,322.6 1213.9,333.0" fill="#f4f0e7" fill-opacity="0.80" stroke="#4d5759" stroke-width="0.75"/>
<polygon points="1203.0,329.4 1210.0,315.6 1197.2,309.0 1190.1,322.7" fill="#f4f0e7" fill-opacity="0.80" stroke="#4d5759" stroke-width="0.75"/>
<polygon points="1219.0,295.4 1229.8,274.7 1214.8,266.8 1204.0,287.5" fill="#f4f0e7" fill-opacity="0.80" stroke="#4d5759" stroke-width="0.75"/>
<polygon points="1239.4,251.2 1243.5,242.7 1232.6,237.3 1228.5,245.8" fill="#f4f0e7" fill-opacity="0.80" stroke="#4d5759" stroke-width="0.75"/>
<polygon points="1263.0,265.4 1268.9,254.1 1258.3,248.5 1252.3,259.8" fill="#f4f0e7" fill-opacity="0.80" stroke="#4d5759" stroke-width="0.75"/>
<polygon points="1181.0,365.7 1189.0,351.0 1176.3,344.0 1168.3,358.7" fill="#f4f0e7" fill-opacity="0.80" stroke="#4d5759" stroke-width="0.75"/>
<polygon points="1207.1,379.8 1215.5,363.8 1204.0,357.7 1195.6,373.8" fill="#f4f0e7" fill-opacity="0.80" stroke="#4d5759" stroke-width="0.75"/>
<polygon points="1187.0,413.8 1193.0,403.9 1185.0,399.0 1179.0,408.9" fill="#f4f0e7" fill-opacity="0.80" stroke="#4d5759" stroke-width="0.75"/>
<polygon points="1164.0,402.7 1171.9,387.9 1155.8,379.3 1148.0,394.1" fill="#f4f0e7" fill-opacity="0.80" stroke="#4d5759" stroke-width="0.75"/>
<polygon points="1259.8,220.7 1268.9,203.9 1254.8,196.3 1245.7,213.2" fill="#f4f0e7" fill-opacity="0.80" stroke="#4d5759" stroke-width="0.75"/>
<polygon points="1284.0,234.9 1294.2,214.8 1279.9,207.6 1269.7,227.6" fill="#f4f0e7" fill-opacity="0.80" stroke="#4d5759" stroke-width="0.75"/>
<polygon points="1279.7,180.3 1285.3,169.1 1273.0,162.9 1267.4,174.1" fill="#f4f0e7" fill-opacity="0.80" stroke="#4d5759" stroke-width="0.75"/>
<polygon points="1163.4,449.2 1170.2,437.1 1162.0,432.4 1155.1,444.5" fill="#f4f0e7" fill-opacity="0.80" stroke="#4d5759" stroke-width="0.75"/>
<polygon points="1301.1,193.8 1308.7,178.6 1296.4,172.4 1288.7,187.6" fill="#f4f0e7" fill-opacity="0.80" stroke="#4d5759" stroke-width="0.75"/>
<polygon points="1137.7,439.7 1149.7,419.6 1139.9,413.8 1127.9,433.9" fill="#f4f0e7" fill-opacity="0.80" stroke="#4d5759" stroke-width="0.75"/>
<circle cx="570.3" cy="649.8" r="6.5" fill="#d35843" stroke="#ffffff" stroke-width="2"/>
<text x="579.3" y="641.8" font-family="system-ui,sans-serif" font-size="11" fill="#333">Aster Radio Tower</text>
<circle cx="1106.4" cy="531.8" r="6.5" fill="#d35843" stroke="#ffffff" stroke-width="2"/>
<text x="1115.4" y="523.8" font-family="system-ui,sans-serif" font-size="11" fill="#333">East Ridge Antenna</text>
<circle cx="501.0" cy="265.0" r="6.5" fill="#d35843" stroke="#ffffff" stroke-width="2"/>
<text x="510.0" y="257.0" font-family="system-ui,sans-serif" font-size="11" fill="#333">Port Aviation Beacon</text>
<circle cx="1144.9" cy="867.9" r="6.5" fill="#d35843" stroke="#ffffff" stroke-width="2"/>
<text x="1153.9" y="859.9" font-family="system-ui,sans-serif" font-size="11" fill="#333">Birch Water Tower</text>
<circle cx="1257.8" cy="647.2" r="6.5" fill="#d35843" stroke="#ffffff" stroke-width="2"/>
<text x="1266.8" y="639.2" font-family="system-ui,sans-serif" font-size="11" fill="#333">Stonefield Church</text>
<circle cx="770.4" cy="400.9" r="6.5" fill="#d35843" stroke="#ffffff" stroke-width="2"/>
<text x="779.4" y="392.9" font-family="system-ui,sans-serif" font-size="11" fill="#333">Forge Stack</text>
<circle cx="654.9" cy="295.8" r="6.5" fill="#d35843" stroke="#ffffff" stroke-width="2"/>
<text x="663.9" y="287.8" font-family="system-ui,sans-serif" font-size="11" fill="#333">Port Gantry Crane</text>
<circle cx="198.3" cy="701.1" r="6.5" fill="#d35843" stroke="#ffffff" stroke-width="2"/>
<text x="207.3" y="693.1" font-family="system-ui,sans-serif" font-size="11" fill="#333">West Grain Silo</text>
<circle cx="980.7" cy="336.8" r="6.5" fill="#d35843" stroke="#ffffff" stroke-width="2"/>
<text x="989.7" y="328.8" font-family="system-ui,sans-serif" font-size="11" fill="#333">Aster Coast Light</text>
<text x="667.5" y="617.8" text-anchor="middle" font-family="system-ui,sans-serif" font-size="13" font-weight="700" fill="#263238" paint-order="stroke" stroke="#edf0ed" stroke-width="4">Aster City · 62</text>
<text x="536.4" y="904.5" text-anchor="middle" font-family="system-ui,sans-serif" font-size="13" font-weight="700" fill="#263238" paint-order="stroke" stroke="#edf0ed" stroke-width="4">North Aster · 30</text>
<text x="1026.1" y="596.0" text-anchor="middle" font-family="system-ui,sans-serif" font-size="13" font-weight="700" fill="#263238" paint-order="stroke" stroke="#edf0ed" stroke-width="4">East Aster · 31</text>
<text x="737.6" y="371.8" text-anchor="middle" font-family="system-ui,sans-serif" font-size="13" font-weight="700" fill="#263238" paint-order="stroke" stroke="#edf0ed" stroke-width="4">Forge Industrial District · 10</text>
<text x="574.9" y="298.7" text-anchor="middle" font-family="system-ui,sans-serif" font-size="13" font-weight="700" fill="#263238" paint-order="stroke" stroke="#edf0ed" stroke-width="4">Port Aster · 24</text>
<text x="1152.9" y="869.6" text-anchor="middle" font-family="system-ui,sans-serif" font-size="13" font-weight="700" fill="#263238" paint-order="stroke" stroke="#edf0ed" stroke-width="4">Birch Crossing · 12</text>
<text x="923.4" y="937.2" text-anchor="middle" font-family="system-ui,sans-serif" font-size="13" font-weight="700" fill="#263238" paint-order="stroke" stroke="#edf0ed" stroke-width="4">Cedar Hollow · 10</text>
<text x="1262.9" y="655.5" text-anchor="middle" font-family="system-ui,sans-serif" font-size="13" font-weight="700" fill="#263238" paint-order="stroke" stroke="#edf0ed" stroke-width="4">Stonefield · 12</text>
<text x="367.6" y="974.8" text-anchor="middle" font-family="system-ui,sans-serif" font-size="13" font-weight="700" fill="#263238" paint-order="stroke" stroke="#edf0ed" stroke-width="4">Ridge Hamlet · 11</text>
<text x="185.8" y="764.9" text-anchor="middle" font-family="system-ui,sans-serif" font-size="13" font-weight="700" fill="#263238" paint-order="stroke" stroke="#edf0ed" stroke-width="4">West Ridge Farms · 16</text>
<text x="1220.2" y="306.2" text-anchor="middle" font-family="system-ui,sans-serif" font-size="13" font-weight="700" fill="#263238" paint-order="stroke" stroke="#edf0ed" stroke-width="4">East Valley Farms · 16</text>
</svg>